<mxfile host="app.diagrams.net" modified="2021-01-24T05:13:41.506Z" agent="5.0 (Macintosh; Intel Mac OS X 11_1_0) AppleWebKit/537.36 (KHTML, like Gecko) Chrome/88.0.4324.96 Safari/537.36" etag="7K3ILatYwM_60VHKW8qq" version="14.2.7" type="github">
  <diagram id="ba9gfIh8iou_HXcLXhXc" name="Page-1">
    <mxGraphModel dx="1193" dy="725" grid="1" gridSize="10" guides="1" tooltips="1" connect="1" arrows="1" fold="1" page="1" pageScale="1" pageWidth="827" pageHeight="1169" math="0" shadow="0">
      <root>
        <mxCell id="0" />
        <mxCell id="1" parent="0" />
        <mxCell id="bLhO9jy1YvFofBGLEU2x-2" style="edgeStyle=orthogonalEdgeStyle;rounded=0;orthogonalLoop=1;jettySize=auto;html=1;entryX=0;entryY=0.5;entryDx=0;entryDy=0;" parent="1" source="bLhO9jy1YvFofBGLEU2x-1" target="bLhO9jy1YvFofBGLEU2x-3" edge="1">
          <mxGeometry relative="1" as="geometry">
            <mxPoint x="310" y="110" as="targetPoint" />
          </mxGeometry>
        </mxCell>
        <mxCell id="bLhO9jy1YvFofBGLEU2x-1" value="RecoilRoot" style="rounded=0;whiteSpace=wrap;html=1;fillColor=#fff2cc;strokeColor=#d6b656;fontColor=#331A00;" parent="1" vertex="1">
          <mxGeometry x="40" y="80" width="120" height="60" as="geometry" />
        </mxCell>
        <mxCell id="bLhO9jy1YvFofBGLEU2x-3" value="&lt;div&gt;StoreRef =&amp;gt; current =&amp;gt;&amp;nbsp; storeState&lt;/div&gt;&lt;div&gt;useStoreRef: () =&amp;gt; storeRef&lt;/div&gt;" style="rounded=0;whiteSpace=wrap;html=1;fillColor=#fff2cc;strokeColor=#d6b656;fontColor=#331A00;align=left;spacingTop=0;spacingLeft=20;spacingRight=20;" parent="1" vertex="1">
          <mxGeometry x="240" y="80" width="230" height="60" as="geometry" />
        </mxCell>
        <mxCell id="Cl85sYf7Jdiys7CeOGFP-5" style="edgeStyle=orthogonalEdgeStyle;rounded=0;orthogonalLoop=1;jettySize=auto;html=1;entryX=0.5;entryY=0;entryDx=0;entryDy=0;fontColor=#331A00;" parent="1" source="Cl85sYf7Jdiys7CeOGFP-1" target="Cl85sYf7Jdiys7CeOGFP-4" edge="1">
          <mxGeometry relative="1" as="geometry" />
        </mxCell>
        <mxCell id="Cl85sYf7Jdiys7CeOGFP-1" value="&lt;div&gt;atom:&amp;nbsp;&lt;span&gt;() =&amp;gt; RecoilState&lt;/span&gt;&lt;/div&gt;" style="rounded=0;whiteSpace=wrap;html=1;fillColor=#dae8fc;strokeColor=#6c8ebf;fontColor=#000033;" parent="1" vertex="1">
          <mxGeometry x="40" y="240" width="160" height="60" as="geometry" />
        </mxCell>
        <mxCell id="Cl85sYf7Jdiys7CeOGFP-3" value="" style="shape=image;verticalLabelPosition=bottom;labelBackgroundColor=#ffffff;verticalAlign=top;aspect=fixed;imageAspect=0;image=data:image/png,iVBORw0KGgoAAAANSUhEUgAAAigAAABhCAYAAAD8xVoIAAAAAXNSR0IArs4c6QAAAHhlWElmTU0AKgAAAAgABAEaAAUAAAABAAAAPgEbAAUAAAABAAAARgEoAAMAAAABAAIAAIdpAAQAAAABAAAATgAAAAAAAACWAAAAAQAAAJYAAAABAAOgAQADAAAAAQABAACgAgAEAAAAAQAAAiigAwAEAAAAAQAAAGEAAAAAmDIYyQAAAAlwSFlzAAAXEgAAFxIBZ5/SUgAAQABJREFUeAHsfQWgpkX1/rm1ce92N5uw1NLdLaB/A1BaQFpAwuAHBiEoCogBSIiUgqKEgNIlJZ1LbBPbnXf31v95zpkz77zf/W5tELqze9+pc545c2bemXmnvpKGhoYNRGRD/K01azWwVgNrNbBWA2s1sFYDazXwaWvg7ZKSkrHlkOIg/J3XlDQNiCgpiGwUpgEN0gDKjLYRVQGKeYtR5cLooSlZi2+KEOg5KZPoWTn9OGZqR0gGRk/r8SNLjh9QiChBBbH4QBWJ1+L/d+vHy91rWix4D4h2LgaeBtQZtivN6iehM6AcSsSmIxeT8K3FL6K5Nugnafxz+i70tKT/IlKEQstxFsJGf46qiPxr8fP9R+H7tcb0A+BsfBCLK0kuV3LnIeL88tra2gLKQq82DRaYOFMq7XSIvVImAU2cKwXVEtNqxm8E1yigJYGaj1/NcI0SaxU+BobaQyh3wpGrS42gC6mLEzD0s46fZLloJlZV/oDfZDKfFn7RzHpgUvg5+ZNwJ21Kfo8vZvtIgXEt4oPGk2VLqx4yNmOawecnFuGicUi13eOxhf4QXgTfYuwTbo3iozFm8tG4iG2VvxQMUa+OBvkL8UOU9QGemNPTX48/2omhgDl858vjeyg5S1CPGrR84XG5FLcIvjIkdEm9SPuqzzs+s+mmzfpxRrUTTSTOlGTN46NY03obEi9fvHCxNJTCF2MhoTYqrBQM9lkR43YMe5GtppjwwNDMZTFMw4IUiF4YuHP4DFEqjS2GbzWSrMQhPb+2zShnWuv+1/CTvFvjwUYwaAwO6x+ot0RjTejfKRLNBp1bTGN8lBxwGxIZWDqWetbYePnm8S2VUMnUo/go2SBeljbwNR2jaoTPNNM6EZDNSmRbKXyi6DuQ1TnH15y2Fp91VhVQoJ/Vhs8iZgKrjp+9XMAiJvVPNXzS+CxVTTgrX88d1WZReEIuuhnSYBUebpNb5Ue4FVNeP4pgIOTUbKtXsRw/QGnYZwk/L2Rx+V1e5CXks7h+GA/atHxdEc3qJ4+fsQdmU7ppbmXxQ2WMUEGetHwZxAya/KleGI6/5P0NkilRVqtMP6n8QAspG8Snj0+RWX/9SbkyKQv1k8W0Vv4M2VJZFXxo2RvxqP/m8Pl+hvbR6WnDlHfq0kmzbX5/gRGjThaSxSgfgplxy7Lb8LphCVNTbgJJRpm5Vg4fwAm8i5KhZq6W8V3IxE7YNTT4s+DMtXrxqeVMw1nazek/kdudiXgeRNtQPil8poi0VBYTyMXK+0hXYJywUXCqH0YWxze2FCR1I1a9BWEMRr1lA20ERPnvxc/qAvNZoAt6GZa+wwxpg37ajI/k2Glm9Z8yNK3/vMR5n2anUP6m8JlMyH+Kkro9XkmdvCi+ShzwSMi6RGNoKWbq9nijDeSfAn4UV+WlNC3J77lwO+SA3iLyRzglK+ABvZd+4Aa507itjKauzxK+itcG+TWDYErfr4Is5urE5wg/y0bmsmJcNf2Uw0AnAIXSgj6y+hnqRTErigFH1sBklDFeCwWPfJuTEUZXjiNWUTrW4idKDPqK2lJH9BXXZohugrQQUf0RMToidD6evjWGnwfWhqwJeaIQQcxIRgeNt7nmU5HJox2jEocXqQn6tfhBo2tQP7GRKFJeLem/sI0wMfPl21Z8FSPk93OLz0wgD4XyW3AR/QT6wvelmP5Jqq/VasEnWmaC2luHr2zkaH0fthY/03VTLtMoYuFotv4oQNv0T5aW8EnDxR2Uq7XeWrxe41QqjVUgcwGUqAjhDI4apTd+i/NgErDRh7Foqz4pvpEG/BSjOH4gVC6rimvxqVs2M2q8TOBptX7AY2xN6z/CKq1Tm63PkHyj+kOhlIeOpvEZq0ZpDdfkt6exciiBOIUhjdE1iR8glT7IZ7QZfkAMmAm+Vu7/AXxmkbppVj8g0ng+gru1+knw6Syu/5bxyZoJSXeo8Qm+xsMfWgSITJpEZsuEwRTIT8Ri+EpGCM//5xE/Zg2ZSOQ3HRbRj9JTsfzLrFQ/OqOGKNUPaYroJ8XXZTrXv9I3xg+pMdZm7GA3j89kTX7jVSEQAl8sX7gDcLACvoncCJ9pOwPT/x/Gp6JWXj/kpsab1j/jiuKngwgg2ADF8bRA6GFho6gDghU9wxGqnjTEqLM4uLQ2GIZWGEbGMKXEgzEaGFPVmGbwraIHLPWEToWMnwo+E87yr+7VKr/CF9dPUgTubLt+THjnz8mfBLqT+PrSUtchMS9fq1dOSTvEoA55aFP4DKdZrfgGmXs2i6+ULmkr5M8hm+dTxw9lYjWyBf1TZM9uyEuUn/6AZY10eL1WAZ9JrSx+EC+xguCJ/E3heya1ebDmBjikzvSTAAdnApyEFJP/fxHflkPzWmtO/xpH8gL9K0LRPqY1+vf0rQ/Iype8yV9RfOfNbJfR63sqK2vK5wGfuVmT8rce3yi1HJrUf76M3VdYt7IBipcQsUPpaGZRMrFeaVx4OCIjExql9TiNCp7VgB8h6AiwsfuLkZTPJPbCMh/DExP4lTTI70GxfoO8eXzDaw5fO+424BuWPbkxlMaellbh89PG94LQgSsETSU2+UNHUCh48Dctv+faSiVM8q00PpPLl28BvsujtsW5/CGqqOXyM3KN4BM4iKr4TJCO8OJ7qhqHh5G2Qf5i+AxTQDrMaHKfFL4qlVlkPjJBLFcukdkaFiKUMvAmbEqYk7+1+J50G/A1Mce3lE1QPBvJv7rwA3Br8ZXO0w7SuX7UG4CMBM9GwM4U7JQeeW8RP7CZtYr4IbGc/KsVnwmgJzErQdaENa5V+gG5q1w5o8eA1ethmkrb8V24ZvEdNgqNRBEWgx2EtsvDyIRGaWMcfaGnZZhGwo6OlcQnBEw2QKEAnigSjOmgZGJwDDRmfTJ9/DmN204RkVYaHxU+4DP5iB9kaREfOVEe0gcel01t5C/Fj3GrCV93JyfyN4mPCJeDudTkQ68f5Y/MmWPV8YNOi+kGyRCfCqQMOZLoiY4m5F9ZfM11LlWmZKGZfmJYJgaoMuPyMyRHQmWryUIjVqL/GBsdgS1YaxyfUgdRVYQ4UmtefhUPtFHs6CiQv0l8pwuMITmz3LOG8D2PBfJ7jl0y2ipBiMjrx6kS+eFU0kb4iPC4QO7cHsFgjXLeSBccBPYwp4lBiMB/TdtpYgIWwWCNct5Cuubw+Y7if0v4miTwi9Ll8KNwQaZEmMQZqcAbgx0/RgZHip/EKR/ld5M4PYgCx+BCfOLSrDH8ABysKIdpsfX6cTmDqCqzyp0IDvAUn271t0Y/rcWPdMm7C/wYnAkQRVT9g8Bp3FYCra+BCVZsVkEdoVYBPxugUICImMnmYum4mJIV0NCbCZxGmjueXW8RPwClEJqcz4MwnSQyCNtqfApZVP7PCD7FS7IHbzCm3VjwBTSsWkbRgn6AVhzfkjF8gBfBzyRJIgv1j6iIn5A575rC97yvxc/r34tgdeon1g2Ary581lo1DkjPmsKPyrAk+bQgtCzqQMJOE0i86WZwsfYnMlB+503yYkGrgh8FWWX8rNQoayIkkygifxbkOUeI5zERi04LTjEzt7r4cN4QlQUV4Id44rrTWRlWaHTCysFoByYPyiVMoBCf4jSPj9gApmr7hPApn8nl0iFhOleT/Fn+Pxn8to8h0hkU1Ybn3GcdspJgN6g+zUsBXcypZVRj9Y0Hjue9GL5rGgwky/Ad0JsH9yf4gWMtvuuG9qrqB/wGEUBb0D9ahqh/8nmjBztKwkIN5avgEd8ioldTjFwEMz4noL0WX7Wk78knph9LTQu0Ffq3jp5iRilVZns0Ll+nswrjabH+0I0/D1IAhHp9aAY/pqW8OYAQxbDwl4v2jpJkFhGTU87UB7eS5ACUyuopw/GXi/584au0LcofCAr0oy2ARoW2IKc6RoRwx1c76EdpLSLVmCnXnhobHtoGOT7rqNbTPL6VQ2P8WEApuEqXPdbiFygnU426GuuH9K5/K0fqvy1jCCLQ8Kr7xMRStjDvfUKwFS89ebr8PQnZF73SUT6tMI35Ik4jfGWK6RTFVxIwrsUvuKci6H816scqA59WLlpccPKCNitaC4/lmdQPdiiheCO/4WWh5uczwac3krQWn0w0Tm++7MkxfKYflU1Jnd4TzOy8/I7k9O53+/OCT3k9jy477WLyg66Z97dQP4baWD8WUgRf5XB6l8lt1rG8pFmHldFkOUjwmRvlJZ3jO2XG21p8a4OIVFB/iupxdeOvuvyW80Q/gGyNfgqzZzlL5Qkh+rFS0ENoFB6c4vC+RAUxHjqj/kNQAQIoLML7AE+ZoVH+HH6GTfwo/yrhJzgRUNEVf3ltgyyvaZB6XGpL+fXiSkZTx/qg1A1ShttzK8pLpGM7q0OZ/IiOYkcHEVaTfj4NfFe425od1Y9l1vNptpevUWXP/ABFS9+rgOo305vyOCjiAi1Vne28RbyzO6nawdNqfMPxs9c5fJd9VfGB469rS/hpo5Q11llWXaSslplwio9aGPH9bXQdkVGzahXWdJdFZi5PIZdpD8zwvbRSxpXA9/zay0X5Q1IF8mtwG/Hnzp0rM2bOlL59+kiPHj1ybVd9XYO89fabsmzpMp3ba6hvkH79+svQoeuYAJqvNHOZxqMy1GECF5Pf8+J1qzn9E8qznuI3qR9QK30QUd14OH2K4e424WtdAmcL+B999JEsXbZMKisrZdDAgZ6ULFiwQKZNmyaDhwyRKsQ1qZ8W8KMAQG6t/EpXTH7NTtBblDQr48b4WRfWUFsjtbNmQZx6Ke/dR0oq2knd3DlSt2SJlPfsKWWVVYrYWP/N47sYqX70HQab1p9UPyCuXbRQlr33DlyUlpEi7QcNkXaou8XkVwI8FB8UpPE2QukL8BtrORCQz8GinYWQqmH5cln+wRQpbd9O2g8ZavStxG9Aj7v49VdF6uo0W3z9y1FvKjfYSFNjp0KFMMVC+WtmzZAalEXHdYZJSceOUTpzBAHIVxCThjSHT8bICxlqZs+ShhXLpaxTFynr0kXqa2qlZsZUKW3XXir69E1SMa4ZM2fIgnkLpEu3LtKvb79G8ufxE3Z1ZvLPWVwv46bVyuyF9bICvxrDG/x5+T4VVgKFdWgv0r2yVOYuqZdaDGS6dSqTkX3LZECPskR+ZbCHQmf4MY+RJAuxPtj0UKj/JuUvwI+w0VGIb2/PyuJnOfEEmsdXqoQpGaAgVN8+B8hea6dPB6pKmqnYU09qTRZkrrbhm4JdFsdySdyf2q3Hd5TCZlHfwiJ5MilWEj/Ngn+JpmHIQlvxn332OXnhhf9IWVmZKqB9+/YyYMAA2XXXXaRTp84OGJUTk1OH+xqXb2QIDtWPkzOsWfkZr0R8wBTHv/XWW+Wef9wr3//uWbLPF75gVc4YZFn1Ujn6mKNl+bJqade+A0Lr5bTTTpejjvqmUTi+FqCV4muvvSYPPPigTJo4CV8wtTJw4CDZY889Zdutt5GKdhV5XUB+fanxKCnNbb9qEh/ZyL5igpxqIVxf2qCfurp6KUXrlIY5eapC5426bCW+8rWg/48//lguuOACmTx5sszDQPCQww6TM04/3cWQhx56UP5x731y8cUX6wClzeXrSOypPFNWDB6T2QX60YgW5I/MrcEHce2cOTLhe2dK7cIFMuKyK6TjqPVk2h+ukdn33CNDf3i+dEf9onFR4/vdHL6XRxvkX/DE4zL++2dqOqXowEtKymU4dMwBCutPIkA2IHd8ldAfgTgT2COCHeKbkT+20YovsvTdsTL+rDOkcv3RMuq3vzecVuLXTJ8m7x97jNQtXSIlaGNKK8ql2557yYifXar58k4rE9Lka6irlWnXXyuz7rlTxtxzv1TEAUpb5S8QVF9epGadT5YsXB/8/Key5M03pNdXD5IBJ54sKz6YJGOPOES6bLW1jPz1VbEYXD8XX3SxvPLKy9K1azcZM2aMvhMRsCDZGO4oQf+Lquvl1YkrZNkKGzS3y/WmbAtE1u1fLiP6lsuLE2pk2rw6WYCByqtT6gXfXjKop7XfOXwyxfIFUXAHzRXUn4zTXIGqOfkL8DmIYv1sGr8IWJGgmL6WjRM07gNc/6RX0vTlMJDc+5KpFIK6XkxYT8TpkRgQY0aYgHscWO0kMHESvHl8E9hZ1HZPxKdMSWDidClJasGF8q8i/pqWv5X4zN/tt98m9953nzSgU+RXGAcq/Fru06e3XHHFr/WFI12qKrpb0n/KojrM6ZexLP+k0iHeKpml5fikTMsjKwlBB3kvBhMT8OXSzciSZzt87Zx11lnSHl/CDz38iPzlL3+RddYZEimiOApYIj/5yXlyx9/+KosWLdJBDet6h46V8o9//EN+f801svVWW0VeOmpr62TrbbaRPXbbTX556aU59TC+EJ9hxMzkT3LPwMBwDzrE73//+/KH66+XHXfaSdn4iHghJPoVMKDCCi7liNplYGQIAKBMg1J3TU2N/OIXv5R//uufstmmm8lXv/Y12XWXXZ1R7ZdfflnmolPvii9MNSmABjSNz+jYuEC2yJoJTwr802GPZirSKzYfjm/c+oxAym7KaA0+yOtrVsjid9+RWgzG6jFjRLPsww9l0SuvSO28OSZjDh/AlLcZfFZokuRo6FdTRH6EV603Wkac91NM5NTJh1f/TqonTJL2g0O9VbDATu34C5PK4NFINNHMSsmf4hN2yTtjZQl01HVnq5dtwS+r7CRDz/khUBpk1t//LrMffkD6Dxtu0jYjf8PyZbLoxRdk4SuvSUW/AUbPp7dxKW8R/aiMThPKr3bBfHllp22lz9cOkKHnXaSYGhXil44fL4tefUM6bb2dxtUuWyqLmT5maWksmUz/O+ywvX6kPPCvfwnfiy9/+cuyDdoGg0ueAV9BEvk5SzJhRp0OTniSz/G94pTg+4esfbvah9DcRXXx9xE5MzxxZq30QlyHMnAacxH9ZHGOH/tgBKhoqXytqD/aRjsvEzbgYJl+FNJpcvghzVRLabzrB/m24AAOv7kSfKdJ+T0scMNre1CUBggO52BUexyEaM40hHxGq4QFKWhMCHPAwODe4vgEXXn8pUurZd68udIFjW/nzp0AFhpLF0/tlcdnttak/K3FpxSvvPKq1OFXqC+44EJp375CZs6cJddee61MmDhRfv3rX8tVV12JcMxAxMKzAisuPxTDRrOV+rHm25SqR2yDVrR6sJyjcf2n+CInn3SiLF68VDbcYINAaVj0VFRUyKGHHKrhL738klRVVeqMCAMyKo2Wq6++Sm744x9lYP9+cv5558uWW2wlczCl/Kc/3SIPPPCQDOiPr1c1GefUaVNl3Pvj5OBvfENjvDugJ6PSKA2x2hJi1Aqdl5OoQrks9bYunQwfMSLEGM/qws9qnrsa48/EUscLL7wggzGDxAFaZoL8CBg/bgL0OQB6Dt8lQX5HJY/Vkcb4GmKRCs28FddPlp71xZk/wzcg1U/osBvje5kghpVLman/DI8+7ZDL0AkEnFL2DJgdo1e5Amtr8T3VTNYsvSzMQF2WDuuuJ+3xV4+ZnGmok+yJKtdbL0gK/kT+NuO3UT8pPuVdMvZtDJxqpfPmW9IbyjeRvxn80m5dpecBBynfghdflJK6Eumy2Wbqz7Aa66ehvJ30P/oo6XuIvWekVSokG4pDbeMM+tEIPoq10SI1H32M2aD3pMPAwYSDIR2My8/ZS/xsiw/QUAPwI7ig4F80hk8pvv71b+jfFeusIxdd9FOZOHGSDlCM2ujU7fghKYuHB2JzRkTb2ND4leDWDuxEwcAHaWMEQ9YZCxpk8fI6qYHu0rwtXlYvSzED0wFLPjTF9GOhjASvJpzHiEGKYA8NU+IC/SCa8li820wVZg3ia74cX+1i5atUKkomv3ptgGKBIAoAJj5ffxg8lF3tEIbgQkiDs1D9BWQDTSgd3ygJvDrx73vgATnnxz+Tk47/ppx12slIZPXia45d0ZqFTx7fykXkTUxlbrX11nL44YeJ/pYS5Nlvv/1kpx13kDfeeEOWL6+xAYpq2Mpk+fJq7EFYiOXkOgziOqPz7xT0H5rZgvLlrMTixYsxO1OOZaMqnaHxUs/Kt0Sqq5fJwoWLVCMcHHbowKUZS9PKt0SWLF2KF5azPSL7f/FL2ChWjj7EviyyCkaIrI48/fSzMnz4MMjKwSapsrjpmHq++eZbpAsGordgyWjUqFFKM2z4UNlyyy3kuOPGSt++tu7M12Ex5GuHNfiXXnhR0x08ZB1ZvGQxkkMs3tqoCxMbMy21smjhQqlesUJ1VIX8d+bSWWJWYL17+YoajX/7rbeAUaV6XbwIvw6Of1x2a9euHTgM1F8H6nTx4kWQo0y6de8u7TAoUwoniGkEYZiCO+lAHdRXPNJb5LSpH8s7+Fq+8MKfRgRzGOES7MtYirLaeNAYLVMHra5ervnlLFyHjh3Q3mb4y5djhgLyss5UYpq+U2fXgaW5DF+pFIll7uXpzU8dpvmXcqkO+WuPmTFVVJB/BWY+VkC3NNQR/0xKw3XZLAxPcyi949NDajXYuxR9KNMGDFIa9CfaQzwsQnDPSj3yW4KlP+5NcPyGOoZXS2kH7JVgJ0dayFiP/RtleE+4t4H7TNjrlHftDn6Wa96Qp2b2bFkxd7a0G9wPHaPhaMqWkDK4/MSvxTvWgLpWhnS5byIQBGHhQ91sgJ7qUF/qIUMJ6kxZ5y5SGpZMXP5UP3WLl+genLKqjlKKGZAVU6diH0qdVG2wYR7ffPFpWMX0j5kq1JsVGNzX19dI5cabBh4foIJTCwJdM+iEs7oI6rbPF7HvBeUeTMTXNjSkg1k/6qAebZOUl2F/S5WUQt9mgA+yerynJeUVmB15SbPZATNTXHLSNRIMBHyfUanKgAEDpzZyJqZs5YqnhxC/A3TPvW99+vY2riCatXEKivBYanCCO3z4VS9v0E2vBDRKHZ5Ie8pVbu7x2J9So/UzCMX6ifia2hLBhK4HBqmAkuBbRQBJwKfcLgld0R1kVrDgbo38nwQ+ZY7yaz4S/YdcW55VelOkMpk/W+IhShKRKsCDCz7IAyIt15B2I3iv3M+4yJ05GZwoOFIkbB6mpPHRND47hM6dq6QjGtlC41huMz51Z/SOn4VklODIMWUVxIPdTvEtS54xo+BINjPuge3OEJnnssC30BlW4IUdPmwYGgzr9Ck1O+kKzJpUo6H1t9T4SzBoeVOXhV5//XVZhqnwjTfeWI444nB05rYEosmCmHItRUd2Ezp/DoLGjh0rVZ06yXrrritf+cpXZOedd1YhvHwfxN6PJ554QrgPhLMfxD366KNl5MiRoMv088tf/lJmTJ+BjtG+bDfdZDP51rHfUiyVMdQXfeEgAwcz7733ruy+xx62p0Yp8Qj6+eADTOOjwxg2Yrjm2/VkZA2yQZydwRcM0j377O9Lp6rOMh5LSxxs3X3X3+Wpp55Ew1QvgwcPkh/+0KaxqQDm5f5//lPefvNNmTpjurQrq5BR642Sr37la7Lnnnu4JHLXnXfLo489qvmmXjui0/ju936g31DsgA8++BDQ76lCsyGkbv+OafLHH39C3n77LQyuOsuWGGQe+61vSf842xPhlY++YvoJakCcv+yiszhc5tl+e5viTvVPnHfGvqP6H4xNs+W6d6kEM28z5e93/l0WzJ8vO+ywo/5xAoL477//vjz2+OPgGytLsWl5OAZ/++67n2y66aYmE2j+/OfbZAkGMF/DtDv1SOOyPfTQwzqjw3qzySabaJyX70MPPyQPP/SQlGLw+xVMre+yyy6Iz0rRXW4rc3gYvsWw3hMzuW4SAiCkgV+2hT1Vgyx66UWZfsP10u/ob0mX7XYIKTbIwqefkum33CxDvv8D6biezexxX8ksLB/2OvhQmf/oQ7IY9QKjMOm6zbYy8LQzdKCQ6p/yL58xTZZ//JEMOP74kN9MH54Hys/lj7kP/kuWvPqy1KCzrRw6TPocdqR03RHvFwg0d7DnPvKQLEQ95SzICtTFMryLnTDQ6PPNo6TTmM1Al5dg+o1/kMUvvYRlL7y3mMHp9aWv6EbVkgps1hzOdxLG8eHMc2fadpfj1+MDoxpLZ+0wW6mDOJMwljUdpPnoisuxIXcyBhsYdGPQ1//4b0vnzTZnqjABFbQUonr8+zLjL3+SJa/jgwqD6zJ8AHQcta70P/QI6bTd9kqzYvJEmXT+jzBoqZJl77+rG2Cn33qTzLz7TsDVSceR68ng751NQDXMj9cFJuM/1cJITZa2imGy1GPgPXnKJAwUamWjDcMADoQaq7a/X4pmKCGemF7DPJZhZfjbZGiFVLVH7QQQ3/sP59TKRCwHqRQUABFsQ1VeMmXSqdOkY3jmYho0qfweFtmVwOXPeAvxFUgfGY1jrW58r2N5fBPUw4rKH4RMBighJMpMdq+iIa6RFYh11GeRmmjib8wCHpZakCom14gQje5bb8sHH0/D11aNrDNkkKw3aoR9ySf4Y997XzuJDz6cqgjTp8+S8VgDrkGlK0ODsg4aTg5eaLzCzEOD/Pobb8lCjN7XwYmGTTYOlVOrDBruGbPw1b8EX5Qd5YWXX1GaTUHz5tvvyLjxk2S7bbaQ/v3sC12BDR3PqPIQ7LmzcDb6zzz7jFSg06MKGNvY2KzEl770pTAL4Bhmv/b6a2jYS2Xo0KH42OPrQFMi8+fNx8xJNcI3QTg2h4a8/BOd7UUXXSSTJk2SvfbaS7iR8oY/3CDPPfcs9rHcr6dpAoRMxdfWT37yY7kbeyp69eyFDmt7WYQvsj9hloKzCj5AYXp//cvtcu6Pfiw1+MLbfnvO3Lwuzz//nLyNDu0vt90m7XUmhfs+anXD5gKsIfN0Cb/yBw0arEmaBqgb008YHuqAqh2WIXjShwMKM0ZD9yLMiLBOzJ0zF2XKl93iTEMZHWlnzpqJDniBlj0HBl27doVM9bJw/jw0TPUyZIjLYnw/+vGP5emnnpIddtxRNlh/A3kfA6W77rpbnnryKfnrX/8q66+/PmFlOjqMhTgVQ/3QHjZsuGKyYKsxc1BZmZ1coHiXXnap/PbXv5HO+FLeFmvdj6Pzfx5LMlPRoV2B8Pb4qveXWRPQh5c9AOD0gaHF56nfxICKsxwjuMzkFT3BeBvLUJy16dOnL+pPGU5SzZDLL71MXgffPnvvJRuigcbrouZFTOf/8YYbZMoHH+igcxny89S//y3vvvsu9rlcinrZR+lYl95CuY/BAIQDFJd2Kd6dG2+6UdqhHvbqnX2ZUn7uA3r0kUfljr/eoe/X7tgPZMb0T7c1kiEYqJZTt5XCIjGQrcNMVx3qvn+O1qGjrF1SozMPjqA2hFuId2/qDX+UAcccl0UBY97jjyH8Zhl6/oUxfNY/7pTp2Os175mnUTsbpNOGG8vcp56QBc89p3VunR+eF2qts5Sgc/5AalHXum25jQfCdrnNXvrm6/L+aSdgRuA16Y0BH+mn//nP2K/ximxw21+lIwYSron3jj1K43vsvqd0go4XvfKSfHz9dTIfZbHJw49LGeqyv0PcHDz+7B9IOT7QuqLuTv/rn5WOs0CdNtwoyGMl5PhuW2Tmy/TPMJQZZ9+wj6XP1w8MOBltCMCMU62smDldZ0QWo64teXOsDDzx2x4NO+OpxWzMO988Uha+/YZ03XSMdNp0cx2kfHzt76VqxMgwQMGM1KxZUot3qxwzV9xf0g6zHHVobxoQxtmw0tj+ofgx01I3bx5mVzCrB8P9ebVL66Ru0QL1axgeJoU967BnaML48dIDM5l9cZLHjcbq++YhtDP5qR/TJMNtpoSxHLCwRe7ckceJMTuozbMNVJSBDxAqrTqJ0tgU6t/f9CzNTJYoSRZpkiZ9ZKMUIi1xvH6mVGsaP00rCBNlSjWNsa6RmpB0s7F32kxRjEEoW1qNdPowwswT5mZsyElDNpo8fsDUmAx/Mkbr55x3MTq0qfrFz81n3Pw4aEB/+eXF56GDGxCryzEnnI7KUCorMCChfA8+8pg8+tTTwik/dm6/+9UlMmLYOkgBxYz4Z597Qc7+yYVSwxcKf5XoSDcfs6Fc9ouLYod/O76O/3bnvXoKZNGiJdhUWCU777SdPPzYv3UzZree3eXe22/BsgHVlxamJoOgAv2Y0qQ7XoQPkbe5c+cZl9YPfajOlAwN5jrDhklXbiLNdTSqJHnxPy/qHgLud2CHQ1ONqfbjjj8WA59y2WvvvbXhp1zck3HBhRdqB3rTzTfJNttuK3XI82W/ulxu/uNN8psrrpCLcNqAhlPyv//97+WBfz0o22+3nVxzzbU6e8LZjJdffglTkvwCMMMZmXPOOVdl/OONN8pQrONy0HfQQQfJe++8I0+jI9hj9z2gBtvAywES8a+68ir9kt9mW2vA/cVzXNflqxiElaFzG4KlGA9j+Tl9f9QDLstMx4CKX+jHHXusfBEDuqwkUPjw8bn+6NGYEbpZB7Gj8VU5dNgwuRz57x426XLmx4zx7I1TCpf84hIZgBMYXIqqQ/5POvFEee75Z+XhRx4JA5QGLCMdB50fpzMihx92qBx+xGE6a0IsDpo64avPDTfhXYZNudvvuJP8Fjrvgo6FA6w999gdMzlPyRuYgdlqqy1NfhXD5fcvOCBp5ixPxE1iNJl/YSC6IU4j6BIb31PSJPWHg7OOqOv9+vWTKVMmy/nnX4BB1gw5BjNeX/3qV1U/5OHA/C8YiH2IweS55/4QMyab4F2pkaf//ZT87qqr5Z577pbjwwzBmI02ktdefRUD0DlkNRFhX3311VrPdoYu416g0EYsRwfDgU07fDR0woyAzbaROytfvsemBjzh9nJVO9FP+YCBMuaBh3Rw0gEfGjRDL7pEBp35A+xVyI5XM5xtyLIPpxBOqrbcgkGqH25YXIaZtYq+3YRHg90swMwF1p6k47ChMvqPt2K5pFIWYNbjnVNOkgWo3zw5VN6FA4RgoOtlE8arLFU4OULj+k/lf++EY2XRy6/JJnffK5133gXylMqEM06RmXf8VRY++bjOdJCeSzrDzj5Huu67v7Tr3gPLHGVSgyXacSedIAv+84wsePE56bHnF5iKLMXswpSfXYTZjXLZHG1UOcqYnfXzW2yMfSMN0hfvpZmsbQ8BidW0/ldM/UiXr7rEgZfXT0dFx4wZwWE//bke9X7/5OOkZg6WugbYrJpRZfgfXX+VLJk8QUb97BfS5xuHSAmX1tA+LHnrDWnfo1eUqRL7XUbf/GcdUM8e0Fs6YYZ25G+vxrIOjshDhFKUj5sNMMCsxexwRTfbFNsBHxfbj31LyjEz40bLgQ8TX9/t8eMnyAY+e5JFFenDTH5iaR8GjFgzgcnq7YvWz767nCtdstOG7aUKIi6uZt9j/CFp4FMQlYiQMAX4CLHYmIr5GRhAaEUpwvuV4Tu/EuHRMr5Srmb8NIcqOPPdCvldatWpNvxgcjD7kS7gqBI1b3iEWFoYndHSENVSiEMYUzcfIjTOLOrPqRxfWwtjwTPEwlq6ZJlM+3i6DBzQV4476jA5+7un66zFW2+/K0ced7JTklOOOOxA/B0sW3AaGWmMGjlSvnnIQXLYIQfIQQd8WbrhnLvJUSKTJn8gJ5/xA6yrL5PdMK18yvFH61f6o089K6eclU0VchlkNk479OnVS3bdeTuZNmM2TovcJyOxJ2LzzTeVCeMmyvMvvpTJrPnM5Gde6Ash0dUbX5PbYYqYU+w8klqKf2XYxc0jrwjRGR823HtjaaADZ32K6P+JJ59AZ9JO7vr7nfLjH/1Ijj32OJxM2U5eegk70dFZH4+OszTwXXfNdVjimCa77Lqr7IXOogteVg6S9v/CvviS7yzP4GtQDeT/CJvQ/owvuT74Or7nnn9oR9YZHQj3ley22+6yN2Zf3Fx++WWq0rPO+q6MQaPBWQHORHEAwA7ogykfGCnlwF8nDCYqK6swmzELS8f14Bmj8VE/qj9HF3kJU+Dt2lVgMDBaAy06e1G5hMOjxwx/AzMAp556ms4cXI9TNMvxxaiaRyTxOQBhHmagMyZ9n169Ua/6634RhnNpxvERLaeedqpsgFMZnGmpxCCDNAceyAa+VObMnk0SGGyCxICZf+PHjcNAph2WmtZV2i7YI0DesuTr7qSTT8Yelq5yxne+IwPQcbJj7tGjOwY1R2CQMFM+hu5NWrcgeZCfqQUB1Zm9RyAwweWJJ57Acs1s2RYdYzbgAjl0H0i0PnOfzMRJE3XgsWQxjnQfdZQOKrlk6OY/GMBzlmvHHXfQ5SLmkQOqrVFvq+DmEqMbNuy1mCafhbS5T4WGs2RjsZzUpUs3+cLe+0AEy4vnrxYDs48++lCXm7j3ZHCcTUP5urDA8c49Cwq1RS3DLIXcHYeNwFT/ujgGa0u77Xv3kyrMcqV7OhQDPcYyzABVjdkInT16jTB44wB8CfLUZats1qMBM5HLp82RDr36yPBLLpeKnr11r0P3ffbFAKQEX+XYN4F9IWoA7jIuxcxBxaD+OF48IMM3KuZI5j/0gCzCUtGICy+S7vt+UTvPMpRJnwO+jgFJnVRDdyU8fwpEdr79TjxFOg4ZJqW676RK2vcfIF1xlUAJ9rfwiDUNqefdf68sRx3a8Kbbpf3IUbpc0m7wEOm9+16YSaqRzpvagIx5Vnzu4NQ/cCM9vW8ETosjYqZ/updCPySvwrKSGdM/i0KLgyxsw9C+cN/JYswSVWJZuJRlgriAGMt3zv3/kgq0CV1wyq6sB++rqdTlmy7b7Sjt8e6pAVMp2rly5H0F9NJQWoEBz0Bpx7LAYKgc72UpZ2kNXNphcFmJJZ+KMGNXive+cv0NpQJ6cDxz4EmhyQd91OOP9dWN1UHvwwKdRlr91PzCz/rJf1CL5gteNbSW41t5KbZYVeFCNvr5bYcS1Xg91gufxSA28FGo7N02fDLE6OhAYJCflsqjcSZZW+T/ZPBNLstIcNOCzLQ0pIj8lI1GZ1A0U4FXQ0PDFsPTOBDY7FHQGBug1MSpJYQHAKVIyVrA7927h1z1m0tk/fXWjcgHfvVL0rNnD7nmupsxOHgZjTFfugb59nHHKM19+PJ/HrMLO2y3lRx/zJGRL3XcdOvteI9K5f99cR8575zvadQX9/uCHH3CKfhCflEmTp4iw3EpGHPGQcC5PzhdNtpgfXn1tTd1huCGq6+QSeh8X3n1dXntzbdk5x3Den+aN/Cy4mZBmYsJcobjRXxRz8L6P6fUdTMTI0iGWr4uXuwN8WVKGSJncCzF9CX3nbDz44Vmr+ESJZ6I4ezE2WefLacnd17MQQP26GOPoMNeIUd/85syccIEfRmZFAeenOZn46wG+LfddrvMnjVbLrnkEgvTZ04KDZmC/L+GL35esrb3PjZocTl5n8AT6CyX6T6YABMguNQzefJkDBi7Ka/FhkgHCCzv4aQN9e9f1xrNFiDUNXJ9B539XnvvJVdiVuY1TI/Pmj1HfoA9BNw3cxkGUNoxJlpkOJfGemLQaUtgITFYafLcl/ESyod7Lz7G2jg30E3klzGoBg2yL0It3yDLcxjk9cVyHwefNLH6B9R77/0H9DpL9/H07NkTA5rxSsPNzQNwooZlwKW51GT4jfWT4nNWjAOCqzGzMWbjjeRrB3wNHT/KNYAxX/ybg69ZDiC4VHMblt/KMf+86Sab6uAkTZfua667RsrRAe6/3/7yEZafHIybZftgyY2XvbkZte4oyN8gPB3FWRam/dijj8lcnKbbGcetB/vyWaLgLjgZ8uQTTwGCubRNsopXUL5WfkqWL6DAmSvfBF/1kykJvHwXS1CO+ELHAKIH3j81ofy4JLD4zbdlKDaZu+GMhJQ1SOWG62MANCymX4JBdkOpdkkgDYkGfLyYsvDll6TbFltpvorJPwl3dXToP1C6YuBm7Fa+Vfjab8AGVG4yNdGBzXqBPS2Ln30aMzMTZMX0j5F2mSx4+hmtMxys0FCKqdh7Uom2suvOuzJINcs8dxwxXDegdkJZU6gpF50v8/79BFQCriC+FTA9IEBZdh6zqQzFzAY3EbtZjL0yFT0ww6QzmgFf9WfyZ1iIg9xL38Amdcwq6mZi109Svt332FOm/v5qmXjej3CM+SfY97OuVHTvCZmsE9d0VT7D58xKCT7kKnivDAf+IVmjC54EX0MgH+1IG/OrXJp/nmbbbddd5e9/+5sccMABuJdpH/nGNw6WrhgUxTyFPoxtc9r+0G11DXjApjpMEtQ1uDpgDMwQnFcIm2RVGqkHXikZ1ZDRuArxWX+UI0RHeQKn+Q3T5WKUyUTcQPgp43vyUZ42ym9LPJ4ZZ4atQR7uSopFQEJToJNEVg8ADztC98b44NBwjyzA741OhH816NRmY58Bv/Y4Vu2DfRHlFWUyYdIkHaBY02OAtVi6wAEvzBRmSxExTeCz03wPnQNnLg5BQ07DZHv36iFjNtoQx0RnyNPP/EcHKBSLswd2CkP0i7szRu0cbXP2o3OnSmzSXEIIMwXye65jsNMF+wh8OV9+GWchnBKyAJud8tdwfwWNqsYBgj0Z+WZH0xtfEeec838qPwcEDz/8sPwRxxtPOP4E6Rj2PixZslQ+4BcZyoAzKBzYGCpeEIyMeKEblzHcvPrqK9IdX/W7gtZNKp+HjcPmtmrMMI3Eujb3qaSGgxfqLE7rQ26+uBSUHdi7WP7Zehub/iZfMfxZ2DNCfM4uDUcDG40CKVN8H7lH5Mrf/U6mT5+ODah/w9LC7+Waa6+RU085TYYNH5rD5+kmHkHdCGWtBjLl2mkEcmPnry6/XP7zwvPYezFGZ0i0vk2YqAnr/g64slITHPl+BUd3B8ZBl1dpLRx4uBxG0V8G3aY8oqkNncJh5gVfeThtwZma1GT4ES1GewhnGc/EZXdca+dS5glYhtoam26ZrqvKZfjww490EMu0eXS7pqZOZ1RYJumMC2eflmBmgPuHzjj9TMEKfsgrSgq64z01rgMKRH12x4CDe5d4KocbtJ/695OY/esoJ5xwYpQ5dVB+vUAvDaTbhS6Q34NT8hb1w0S0fLMaxptGqzErW7WRzd453or38PWMPq9ydKgXiFiGekp5Oq67Pk7MVDop1lKr9b0s69rZTvcgEZelFnualmJmtd8hhymNMiV54T0ty8a+J1UbbyiVw7xeW2lWT8MMGtJr329g5J2NDdWTLv2pLJ84xWaEuKyBsl4xG7N4mM6oxF4NmtrZM3HPyXsy+ORTgg4zmTgjU47Zr/KBgzD4wYcMlmFLsP9KdY3KX4/BVqmedrKwBsSVY4aRp4VSw703nbDUx9NPVKznGUApmbqXYV+JYKmpPdLUAYrTJAU5ELO+i7BfbeFz/5FXsF+m5357Sa+vHCB9Dz5MStHuZsbwF77yImZZcIpsg1BGRco31h8wu1RquyeColASCj3tB9m4OX4elsX2w+yy3xNkH5oBIJGfIWyvOdBAd6KzKAaPPhFlQw316UIdluCelHqpxjX4nmopCfHgPm4L1RCQZoK6S233OEBEIlDjPjjHQxLP65rAV5mCgGsCH9LbAEUzUvwR9aLRri2jzftSfnBB4Dh6SqMK3E3hP/X0c3LnPffJ9JmzsIcCG6BQostxRJANKmcFaFJ84rDIvTzUq1XAXqcl2KfB5QcSDB++jka7/KMxa/HAw4/hi3mqsYGPJ07KwovaHp2uH4Vk586jt9xg29g4osXkfU7dgGntQdh/sIc8iJMM3kGwc+AeDs5MuInXsYeAiWGAwin3/4fTDzS8YOiUU07FqZI79UTG4YcfruEz0GnPmDZdZxo2w8mL+nq+DqYlJYCTX/BueIcGZ29cHoYXk3/qx1NxfBT3mHhHT0LCgnj8+HG6IblfOJUS5UfcfDSO1O83jzqKHGqK4oNmIU7oDBw8CIPBUD0DfiET88PS5b6Kb3/7FJz8eQ/LVNPlHZxi4AAlxR/79lj9wh89er2YeIwH/sRJWPr44bm6oZf7b7bcYks9msyB7Snf/raMw1LOeljCSs1sdBY8AdC9W3dstMvKzeqhoXNzMmdhuA+nFwbdNlCkuti42GBRBxYpcCvcnA3iMh83Xd9w/Q3CG3q5sZoX9rm6XP/c98TNqd3xFXziiSfhrpzfyHRcef/Cf/6jm4E9OdUR6vwO2+8gWyD/VrDBQnZYh3r1wpduYrjMQxn4Xtx///3Y3/KBfOe079hm9oROnS5Yc+FIx8lc/kLylv1AYPuT1IAlWHbgB3olln8cnzgLXngO+ybQoQ4fEWHnY4Bagg+RTlgOSs2Sd95WzLKOPA5bZfgBbDGPwZZjUDM6w0/lX4Hr5kuwa5JHf3l0OTWLXnkZbVkp9sFgoybkXvzaqzLue2dgOaOHbPCXO7BxdJTOaNTMnS3vYg/LsinYazFwsEJUY/8MXlppj+UPm7WJtVrmP/mkdN5ic92/whNTg876vh6Zplp85tbED090uhzQYIoxiseBDS9B677jLtiUygFKhh+JEscSzOqWVuCIPWbP9LbmVNmBrv2wkbI+9oxQzwuf+bdM+/OtsuB53IyNe+H7HH5UgmbOhS+9jOWiSpvN8liIoeVbBL8wKO/P5L/7rrvkV7/6le5jO+SQQ3SGsC/aEjfN4ZOG5csWKDNIiR01xnvdO9nAg7/Rs6KWg3miURLq3jiawy9ATVJJY5orjZDrYFmKxZ95kjbgM6955qIJ5Elai29QWU2M0EXgUkyNDjSw0q9QhtKo4s2h/kCt7sIcKXQB/kvY4X7Bzy/DRr2psgs2p+6w7Va6qe59XDR1378e1oZSwVI+uLVKeOkHAsdfjo5G716AwJzaUxME69zFvpJmYInDDHKAoTH/aGhzwKJuVjS0dNwBHk0qh2IGYFiN9WPa4Y2jb2Jtdxam/7kRk0d0t8KabKofo0RQwOcyxQrMGW6wfugoQzI8/sprzO/AVKUPULhBlp0nb0fkHSktmfn4AuTXNb+KowwF8hODm2E5W8W9GdFAvncxOJiJfR7U0xbhMieVP8jIJRPuP9k4/YKN+IEIgB9jAMRTNwcecGCET3UYA+FI8dnxc1aIR4eH+u2zAZ9LKHOw7MAGc8TIURHCUyX+W9jLMgWDibO++93c0se777yLGZoZwK3TmRJjNk4OiPiCcgaDd4g4nhcYZwA5q8Bvqi/g2vXBg61TiQI0cgBBMxuQ3BuQM3ze39BeT1Vti43Pt976JyzjzBEOmHgqyeuN27Ox/MWL/XgKazOUzdcPOgAzTdfJ45h92wr1gyemKPNMzDKwgR06dCiO/u7cSLpiARvgq9Y3+t51153YhzRadgq3lpLeZA6SQ888mj6HN79iwPTVA7+m+1ry5Zt9oafla2m7BtzO43uoI7ifvEuxJFqOmQ/tyA1MnzOw5NVh8DrSDrcwO9ry8RO0sy+r8g2WhjTtjtsw21IqXXbYAZ1+ueUNeaLhCZsKdO4dsGE8BOXqp/5WDL+6wUfe1Hz8u99gH81wLCltoMELsSF7xfSpsu41v5ce2EfipvrDD2TpO2OlWzjuz/DlqLOlJbgfBQOmmDDCF2PgtQLtWY/9/5/We7yYOCacfZCQN9UP/cVMNZa/SsvbI1/DdCBnNBmnuTL/Apx65HHoOEvkyojgRttunaHSB3+99vuSXk//FpbwZ9z2JxugZHB6QzB/X6kE98i3CxuhPVrtRvg5NWgmUaWDCZzBuvhnP8P7MkS+/73vychRRdoFcGW8jmH4uj8TOPaRzAQIaoZdUFV7c6+oQRwDaIV4jF+0qNQfZQuRIS76yEoapSNHAHI+DQrhgcl8YXbF6SJggQPEn018kzPXpzNjQRPqot/CElszHHKdy7yNJX2UqACOEkCaw3f6OnRijzz2lPCui0sv/olc+9vL5JSTjpMTjjlCdsIdD/UNGI7mjEuIjeCZppWCMR7Lm1U5Rc1Rr82kIDLIzxkaUvYLxyeVWTkdwZp6xyItlyBosrDAVaCfTEV5/XAj5fbb47plEHSAbHvsvjv2llhHYUiGneJPw6xITV2NbI51bjUBnF/77du3002c3G9Aw2UHzgA9gfsc3KRY7Mjp97Bhw4bL+1gCW6b7IQIwLK4p290qRtkLX3XcWJrhNmD5oF5uxwbbqRigHH3U0ZjC1wVYww5Qr2LQyYHdiFHZlyr1z2jTjOFT/mVYi49r+ERxIUE7Hl9znIql0eCAzx8hvBOzSMzVBlh+UhPweUHdMpxOIWmfsFeE8VZX8RWEmQHOdNQgr5xFckP8G268ARtQZ9jyDPwmiiX6AY6V0vDH92iCKOrmg6eAOOhj7eFsRaEhFuu7G+qBnXVEgpte108hPil1RgZAvBDNlooyKuJz7w/3hHAQ7HrZb/8v6qDq+eef15kUT48ze5y6njwZusDyj+UW+rFMh7wz1cyMxmC5HGn/+je/UTl3wsCGddtNKj/DTsRS1A/PPUfOOPMMHZwoXQ4/Lz8VEKKDHsiR0WT4Wai3QW6TY/nUaZgZwAwABqlu5j3ykCydgmvpMePHEznUcx1O59QswmV7+ABZgC98GobXYD/IIuz/4CC370Ff1/AcPupPAwYvVlYaDTdMELUCP2aoOPPm4IQLBoLBzLrjdlmxcBH2i6wrVaHeLnufmzaxuRybPmlc/1Mu+al+nHXBoNINfxSR3/FLJ4zLPtwQOeEC3B+CZZHKYUMxqMoPiFyjLr/jO2ZqL52KOk6VaTlYZtI8pvon33ycSivDB1+86h9hugmXkWqCQuCmfjgT1RGzWqVYNm8ffhTU3gGjrsWsEU8elpZW6CV5DHW53fb8MM7rCt1qVG5zRrkRxnaGG+d5bcCAQX7iy7gd1+0UNcXnx1w9dGMtqU6caEK8iK0Ce2ZoeIusbXWgP+CjD6KvJXzym97VBW7DTPVj8RYe8T2dqI1M6sxlmJ9lfEqob6vdrwBdqPSeBagDzqCSYLs/ZA5WpmRXUhZiSGieQ1QjfOUnlqcJFxrSjzDNz2PAX9pvH40z9hKZgqlqLLBEascnAjvjUnQ02YZDrwSM5bFPTBHiq5PSfTDlQwZGM3HyZLhL9BpwBiouagGnQRluR8TgcjGRoYYSm0Ex2TyC1IXG4zwm0w+/aPvjq2YDnFYZhY6xOf3wAjVurKV+xozZOEmkQQZhOYTHbufjrpH3cC8MDTdtrrvuenLjjTfJ7fhKnIF7O6Zipz9/ZJCXqV32q0tVVs/TfvvuK9Og9/N/cp5e285fveWV+twvcy9+P8dzxtMq3KPAH+fjlercpHkLNmteedVVMhjTzCfiKnuaejTw3DMzBRuPmfZLL70oQzCDwDtDpkyZggEo7oxA50ltm2bs2Q3LJczLjdhTc/fdd+OI86vYx4FLsoK57rrrcD/LDnrx3PvvvycfffiRPPbYY7hEbF/9TZ6f46tIjasd+Db7xZsba/F7OTfoTwJQhmX4eQTmi/uSeuMLuiMGVtcDn3HTsPHzXHSkt9x0i9bfbbi/Q6nV0gf3DDGf7Oj5N1n5piEsG3Rw+Qbw+O2fX8qLL+CiMOiV+Pf8427cS7OnPPrgwxGQGjAtwJHIb2ExJosCGbHYmVaifvdCZ5Uxml6ZR27SZb0ZvV42+Drm6G/pssx1110LHjPrIp77R3iZHH/TZ/asOZjhm613wVx88UXyu9/81vayKLkJ2KtHLx2IUboe3bvp0mUSDWdWvgvQ+XPvTB3e05GjRkYyax+cLmbcdAGv59ztyBgcuXANCyF8h9WPsQkG1vUYeMy8+Y+ybNJEWfDEozLurFOxj6BMKrDvgidDyMXjsRykYOQoCx5/HPsknpVq3F80+Sc/lMVY4umNZdh2A21AytGk4/MUST32yk39zWUyHwOfRdg3wUGNE3QYPlwqMNO2bPIkmXX7n2U52rJ5D/xTJmGjaDk66cFnnYHUTe722EjLUzwf4uKz6o8+xA/fTZZ3j/wGOv+ncdKmXrpsHsGnUVEAAEAASURBVD5QwFGJi+W4oXXeo4/IoscfBe4HMvEHZ8mSl7GkhYEJ5coG+0EZrtEgv+vfYj1H5uvQl7MupTLrrr/JHNytwuUo6gOFqAT1WO5djjpYjTaUP0xYj+X3kpIKnErCnqRJk3HBGwY4+j7gQwYbrcfhCPL0P1yL8Mk6S7QIx9fHn3IiymaJ9P7ClxRTteBiYOaHI7TaZQtl1p9v0SPh1VhG1Ntno/7JYQzenikQw/DftOr1y2LexCEHLkuy/eVJNTNGSQ5FawG/qiMwoQbuRcHYVLp0wK3U7UukVxUuxqswrGqM8zsjjPeH8sSmLq2BHt8uuCfI60/b5Fdky66K7VJ7TlsrvyqniH4+eXzPjOfE7bgHJQSo5ZGw8Z+s/AI0O5RjznKijCJByFESL1UifcXwuYmOJ1VexH0BW22BHegw3OB6z30PaGdTDL93b6zv42t03ITJ2vH5FfDKjIR5P8TQoUNk7Lvvyx24g+Cc752uUR9hSeEVXAJUU1sjW262iYaZmKh8obbHLwxEUF6+MOFTV+mzPJk30wRpwaSA/M6hJp3aqA477LBs34fS6SNSGWIJLgRbrF/5PE3BY7bRBPx99tlbfyjwVWzG5MxMP1z1/u1vnySXX34F7us4HiegeuoS10LMJgzEF8OxuDtETUjuVOwbeBFrvbf/5Ta5HfdgVHZsr50TlwR4eygNJWaH+4V99pE7cG/DYYceql/PfNG33W5buRonajqGl30KZsCGo1HmJXnMOY8as0x23XVX2+iL8uKvMg/hMUCVwfTBZa7dQMOL5A4FPjv7ocOG6QZbysBlOp5mOu644zWOmLy5dV0MnI455lty5JFHqpxWdgCGfriZl7eV8kf9zjzzdJ1B4x6OR/CDhNQVDX9EkHp98aWXcJR8c8UejTtU9t1vX/kzBnhbbMk9GWa8fHfaaUfckropLv17A0exd0X9E72EjZuWeUyaGeNg8Gl8efPWWS7F8ZI6nnqhzpjeZptj42wwrFbsLBRf657J7/opVn8mTJigm8mzy+/8XVWlYr/QEvkAnSGBvWyIv/U2W+kNts9joyKPavO4OPf8nHzyifobR1djwHnt76/BjEGZzqD1xGby4751LN6/sLRhQumG1z44xcT9TjvvvKvuoSouv+DOlNdQftWQd4VsCr3SmJSpy+XX6NyjtfoxJlOm4/fc7//hMrYb5MPfXSmTf/krLOv0ky4o+7n3o03BwKqUJ3TAsgIfASsw41S1wXq4dGyJvIz9OCXoTCq6d5V+hx4uIy/7TZApj9/nG4fKnAcfkHlPPCnT//J3DAhFRv/uChlw8nesPDF7Mwx3tEz6v+/J+5g9Kr/wx7iEbRE2fm4kw39+iXTdaTfQWQl33xsfC7fdovJOveEPOELdTrqg/nXZdmuZc99D0nHD7AOlAoP+AXiXp/3xD/LKvl/AsdyOOhvDWYy6pculg5+kcuWlGoVyXD+ZK6//Trj7pCc+FBdhj9qbhx+BKbkG6f3l/WWD2+/AqbiOMvveu/XStfpqfLABrJzL5VDNC7j2gZ13u/49ZZux46QMHx5YJ8WJpIny8R+QJ8hR0be31Hw8UyqGD5HBWFrlnS/RhPrPI9vdd99T5uEOmrePxru9Aml0ai+bP/s8Nhxv2lh+ACP5EG65Mz/yZUWmSfBQANuOdZLl4ATMnGA3BLIEFyzFgz2oR7mMn4qPLIyh+nQrky2G8Z3Pm82TsOfGrZDZC6AUAHTDIKYTLnRrEl9hEOvpwZHKb1+zGbcJZTklq8YYexAo0CYsSgW/ceXLPRHM+JVoTeG7EBl+ELpwk2xGwGm5dOSdy5dzu62RTpFgIN7bWSNN4prA51HFzTcZg1+zfVwu+sWvZMftt1ZdPYUTNv6bL56sogXITbGhjRXuRfyC5ffOPV+/5niz5hGHfh3T+r2U5VjcqXLfPx/SgQ5/g4RLOi9izfTd98fJvvvsiWPNoxwapWYFxoCsGjExDUBlCW4LyT1dExoYPRmKERs+N3hmxpsoJF+gH96dwV/M5e+4+OmiFP/oo4/BsdxROKWCI8qB98hvHiXDhg3Xa+v5g4JcmuEmsI022BBLFjbo8LT7QhfXXXeNPIEGlpsqOcVP2fjbNsOBQeNZufjii4V7H8aN5x0guAoe67fs1Idg/T0Uh1RhsyY3brI8ixleoa9Hcx00oDPNX/ziEnRmr+ttp9QaL2Zzwz0ivEJ+AjYH8iZZLtv1799PZeDdHZmUAThYPIZNPs74uH42xrFoNyNxKoIb5h7Dvoz5WC4aMnSo/hoyB7ac6Uo3shKS+eQJAP4wI2Xlxl6+LwxLy4eX6V155ZXy4AMP4oZjLE9hDw+XyXgJHcuqN47uuuHghMbwQ33xxBAZnZFKsBwzRQfk6aA1wCgVT5/xMja9wE1DDL8K+3VOPfVU7K+Zpje+hijZdbfd9DQXL7Di/ijmpTdmGAYMGqD7S0iX4vNU2SIMentiEHjooQcrjMlZKL+gM1gHl71dqcpj3osZrz8xLklsZfTjOJ0231LWu+YPsvA/z2Emowt+9XYr3DEyVObt/ziOuY5WMuKvmPqx1GCQ0v+nF+FisE1lzr/u04stqjbfBHs/dg/1O5PSXR3w7q1/859kMS4Hq5uHm06hl2677qbK8iz0/tqB0g4bpRfgBEvdksVSte5o3C0yBh0tP4xscEK8qjGbyHpXXY8r+P+tN7N2xExo991318ETT7u0C5vQPW/rnPtjvel26bj3cBKon3TbY2+cWMLJLSyFVvJjRoU0KUxelzpEOVCwXV71lpfK6N9Dby++oOlzFF45ciT2hLTX6E44lrz+9TehuUTHy5pBaD5CYfGCu7Ku3ZSWg8ChF1wovV97HftjcC8RPjZ4dLgSg7RuO+6U25vjg3EyjsDAbiFON/KuF55kKsWeKd59Q5PlRL36yMmfeLz+kOgFzGaybvMDLGUyvAw1cxkZnw45rHeZzFpYJ3MXYbZtcb28+QGmS2DYNZAPkyqmDthMe95izCIhomNFg4wegDteMLWq+PoAkZos595OeUwqfyZFiFWhXLIMsBi+8zbC94SK2Z8SPu6bafgJ5DkvX9RZBnOyFgQn3SnYkQPXD5gKM98WfA5ELvz55fL3e+7FoIOndqplO3y5f/mLe8v3f3ihnPv90+XEY4/KiUbPa2+8hXscbpJHnnxSj1Lykra/3HwdrsgfGWk5W3LG2T9CRzVVv/44UDnkG1+V/zvjO7iQyjbF/fRnl8pdmK356y3XyYjhw+TI40/R69XvvO1G+RhfigcfeZxsjmN3v7n0ooirjjWtn3xqqNzeqGWV2klS/dPNH7djZ5me0nHaQrsGlztxNoo/sBe6mXzxBQYOYtgpc2CYNwWKyEc28il1iyx5As6sMH0uz3CppZEBuZ+iyHM2oswFOK7/PEIuMvUk+Gmwu1P9exiXtPjHMsgGbk1Il+ArRQGZ4/8Ox6wvx8CKy3633nKLbhS2wmKqyQvpQrhdgKetatICuh4409NcneEvwf77qafxy9rn6yyUtbhIJME3+fFM8F2MvJ0wRYA0LMFNgs2ZBJCsYIDv6TSwznLQjHw1MuD56PJLZcIP/0+2fulVnang8pl1ivmv46bwG2HGfGQxHLzwRwL9x/SKya/UpMOfHdfN+M3l+XUbExQ4Caj3lxQUezH84vJnWFkBpmGJDE0EJxRFnBkTfyyRgx3ODuXqqZMEm20c4wuyVASbQc6cutMwI3kKy0qnf+d0fPAuxL6793U2U3kL+jCi5E2KZe4azCiNxSzK1NmYHcKJHYpAGNr8RWXee8IBSynsCsza9u2Bqw4GYr8Yln0aGxDGnLrb7UDt3mBn+kHASsivgsY0kcZqxy/IZRH8+OmVl/889C3n6wAFlZWeIB0B4VYg6wJDSJC9IAVGuvGoAn/2MpCApnX4PMXDJZh1R47ADajdwIUCR8fJjWp6W2pIL8XX47SsESGOnTKT89xxzMpr27kEMWPGTD0R0w2b+jT/gYeNMzHJS7XwK5GOMnSGNNwUSllKuaaoyHn81KcM/gj47nUZU/ktDuko7aerf8tHlNZkomDe0YT8NCc/MTzbZrsvwXUno1L8EN5afCP/38J/5pln5KijjtJTRjw1dAhmMS75+S9i/Un131g/Bbpqpf799ti78KNtjz7yqKyPr/RzzzlHZ+isxtp7EoQIpQirGD7ClMfrVKwtZDP57GkwqdvjLSaQkydiWVhr8blPZ9xpJ8o07EPapRozAikOE2Hiq4DvEK6d1S3/J4fvpeA2U4Zpq37YTkPHygZ26sUQ7ek+QkcTeDI/XJlC4XHezOkhZ511ltyFn2rgz6DwN7SuxOmpAw+yDc8ZHiLTcnfmjACukGCI49wRk22t/H46VCFbgU8Smtbit1X+NYvf1j6MilT9nscBin76+vhUv8NdYUrjMVSPf6VrRPSxYPxL1cvNqEEfCtpR2oo/eNBA3BkykHDR4ECdulVMEwXJZjLpwKXIx1EqP09X8Np6/tFQhWoCHr8aXQ0M1/tQEKdheGRfv7Gqgqqt+vFyIEYmf1wS0yCPoRQrg2+5cJS26l9FAES+fF1Wyp/iW0XUIIob5I/ORvIHEuKTnPQJD8M8zyZ/y/gGkMhnEIqk2P+F+NwwfP111+O3o+6QCdh/teP2O2X5DfUqr5HUB7cp2j6+WqMfoN/2p9vklltv0aPmfXA65ZCDD9bBCRPO6lpwR3zUvqyQQ7IW5td/a/np56cC+SPkQmtJcLvYSG114mOAsgTXnuu195BVU1yd+FE7a0j+TwzfBxWhtKEjbSOS8mVd0DcWYWn55tsgq4sFNVLL3dRegM/S1zSInuG7j/Unj28xhm/uLbAUPRCbkHkL9f77Y89LWr4ria/dTUjErCb0s5L4qfyfP/xQhqZ+agDGnlpW9Hr9KdAPo2xuPmhA1aoVIJRaBCJkAEUUSQo70pBOoHL60Km0GR+iJ9M9lIYQ6eA5SGMVciXwrUWm1DQBLeTNQixVfa4EfpQfvIW6W1P4+rKlsiLl1Sl/8/jMpSuQqVou+VQZcjpOylf1o8ROqJ4geSJ/G/FDem4pqAri0pjtjaiVEsIK6z+CrCqaYq0OxlfLq45lQGktLpMffsVsQv7VgL8Lfp+Ff5kBqBrITKeKbvJbeJA/xgUS+H0w6vIrQJTfuHnh295o4HtjcMIBkv8kgcXyWQzfZGkOX/lVzJWRfzXgI5+dsB+Ev+VDE9s4uqnEFvRjTHy2XX4tgTWNr5J5/aScVDYSDeXLEKsrLcmfkBGCf/YAWih7DWmMb6SrGV/TVuQgSmN8zsJehtu7c4ZkxhYdxeQv1JhVDCKBOWCkULGf8kDLNBmK6iePDyYtDzKTAcxZMhaUkhB7VfCDAlxUTbJZ/JCcJsuEXWMqBNBSZqJZeDH8+H7l5HcO8sKNgvsJ7PPocWWr2wOgoGSskEUVuFwAtd2T0jCMxuQ1NxNcGfzAnbOawjeV5ZPNMZqnmMg5soCf14VxNcfrcW7nMFMPCWBy+KGmN8frcW4bSpHn/zh+EY3kg5rRT54w72uk90YBgX414Ct0bP3ycui7i6Bi9aeAMudNxc3hpxHkoJ8W3t/cK8wwxGmbqhT5RwqjbidOI8hCP60U32ktqugzhWk7PiALM1OQymrBT0EK8FOvy6/3ZhTy0E9TTN5CWqNs9Fw5fHDlCqURbAxoEb+Y7KEPKJqviGyO/wp8ZMXyAUdRfRRkuq36aQlfE0/TQADKtzVF7KzNyu9EMYmVxMeYhEs8+cWQqDCmQoMA+2/e9OkktPHnrGrrA4FoYJxMCZwohiLA/qfI5nZG2vhzVrc1sDX4YM94kmSawM8oQFAE37Cc2XzN4esoMZG/Tfih1f9U8IOgzcoPGteEl6/Kyo6FpkD+SGuxRsJA/DXOo1FHHhLgb2XxkySDs/X4zhtl8QDYrp8YFDOy+vEVOo4E1jC+ZqyF8g2ZdpFa0k9O/oAfKxAj8ac0BfXHddsIHwFR/3ST0IWJ+IGrEb4zOHqSVw9aXfgqWHF8zT9FdHEgv+WDgQwPdpA/CwvhDGgOn/EkxZ/hthUfXKsLn7LQaJ5c/pXFN6jYRgcZP/P4EFBFdXmhC9dEyNGq6aclfKZbRP8aHAUIDheMNv5cZLXdUyh/BHJmBNj/IvlM0inED1HZAAUEDknEzB1ctLLARFooOAibRtuQLExrMzFEZvFr8T8r+omvBwsnKyCWmBk09E2WLyhiSabli0bWoVL8UE0cOeJ7zXcejQiJZkiJeDn8AAfmtfhBF2tKP15AjfAR4fp3miCKjiBQMAzORXml8oEE450A+G4sCE/811CnIQEDyE98/jkT7YivXBbjBIpv4RaEJ/5riNOQgwGfd/yQsTWmn1bhB6WamqFTVayWicVYRFH9J/jKUPgAVmwjCvCJHfHhLo5vEV5dCuEp61r87HVqnX5IZVprnf6b6GOAkg1QUHpJW5HIocWK9x1J0WkpxvhsxdFFClEBzG5jRViL+EazFj+q1hWptr5Aa0D/4XvK2nOW2eoo3wQjh0/wJI4ZY/1xExsCBhTWH/CFoByGc1sDsxZfdZnoeLXqJ4J5ielrzcIK4wEWUhZHl5cvg4uVb2Qgq/M2kn9V8IM8xFyLH5RBXSRKZuga1I/WgYCvRRCSzpIsKN8Qb8JaoXnRWVj+qX2M49NO+PPciGBAEu9Ia/GpiU9HP02OISBRNkChfLHSerPCQBiVOzQvWpJewgV0oQXQWO0xEJ+WfCP8gKP4od78r+CHN2Xl9GPFQo2l6vUW2LRqMW3BV/4c4Erio5wNJl++q4RPQK8/qwuf9c7z2xQ+s0A6VTmeTs/AlvS/yvhJcp6+iYMnBGktvlHbMyd/cXwQGm0hvkWAKSlfqgHGYCM4QiwiDXEqZQjymzsChKgASoxVxs8BtIjvKXvCLcvfFD7D8ZeLTodoFvHZxrcsUGkm58rJr7xpRvU9DnWomH6UNkQw8aaMkgCH9I6vbkbk8a0civVhxcEDtOHk8BFTRP6m8RWpUSLN45O8tfJ/xvE95ypmMf2HfDpdLEgLyA9Q4jyXl3bgCt4sFAkhwaKqQaDSZY+YdJx2jULkgVN8grcKPyVqJH8z+JAqZc2ELJA/JVoZ/By/pdJkPluJ75Bqu4fQwZ3hW3qRpAV8o44wChen3dcIvtUjT3d1yR/xUM9y8iOCulD9RAfDgoaK6YfEBQo1er5sBfghsUgeHUGiNuNDtlh4QfhUnICfkXiCie3OIEJmUf7i+JGmED8m5KCw3RmZTMeMaISf0KizEL8wnuBtwY/yAYhu5S0CEEEb45PaYIL8BTLlkmgSn0yMLI5vkJ8APoRN5bV08fTAFuW3LES+nBfyf2bxg+4puOYxs93LiObkz1STcRAulqsDe3SwrVSNzvAtgqeIooFTQ7NHjGpS4NWFX9gGBdzC7Ky0fgrxPWdR/iygOf07Ve4KUGJTwWx4iUeVKi6R4qemsfodGA7k1IoBcj9OmMUzrPX49pWmqQcIk6YRfkLSJvyYS5cw4MPLAXKUf1XxIz9AoUNNpQDfSVorv9GHUnJmIhfDZ35cg3AECXDhXYO8e+/70m1QF+m/SV/crpmNVZ1ea4F7Ar5CpfI3gU86zas6TDY6aRxSbfesJD5T0Q+aUD8X4McI33nnHanCD7ONxhXmvAWVv30zGT9m1rdPXxkxYoQKFstX5TEhXP8uIeUvxGeIL1s1JX/dokUy98H7lM7apQbpss320h7X2ydaUf00j5/qLXHDmZefUjkyIoOG6Urx6/EbRguefkLaDxgklRuNAVWCmbqbwCfsnPvvkfplywwZmeuA3xbqst2O6veHF2nEx+WKy95/F78oPFW67ro7qinvGfJWxqV17iLyh/w4RYaPEPcwMri9uXr55ZelFjfHboTfGarCD/Itwo8Fvvfeu5r25pttgfuM8nI0xs9kSeMYqnr1BD0yhFMQo2mOzqnSDFgWVhu+vRg56VQiTTLTf57A8mxP5rIpOsjaDL63M3ls92WxEd8LzUlgN4vvAib0dHpwZgf5W4VvXN7HFCveDNfLqhA/K89Ufrtq4DOAD/GofS/V6Fpd+lld+KFckwGKKxrNr1dga7HRGIYBC/TLOMuLEiXVg/6AAac34hmBq8Rj3A+uQnwwOVXGvxbf65BV85XXP3Vav6xG7vzGfTLm8A1lvyv3wg/FebmyFKF/SyRTv76tIbCF8nUALUOwePk62Mrhs07Q4BkADB+vm8pj6GPHjpXDjzgSP363kfwBP0rWvXt3ufcf98pFF10sBx74Nfx44q8UonH9ah0+U2lJ/rq5c2TcGWcBsBbvCxUrst7V14QBSvPy5/Etx5YzujXllZZ/xexZ8t7JJ0mfgw+R4T/l7xC1DZ9yTPrRj/ArtNNxm7PpvfdXD8gPUCBi1sAbfgNubp56zTUy9cY/yA5TZ0sJft+omP5j/rJsBjCmbIbvgIqNwVY9fniwrAt+5yVeW2+R1n6JfPOob8qC+Qvk/vvvx08BjJFx+K2ak046SVbgF3effubf0rlzF9RzyJiowfHTQa+n7fIZecIUCYJwsFyGXOUE3ecNf83qB31AE32MVfVCHYfypb4Lo7QMQp8S9d9W/KRk/6vx8fZp/taUflrGt76sUMn0hzLU8kz3oKCisPhZ8GrTEfjNAmOIczsQBqjAnAYakMU7PnwRP3CGZDJ8p0n5lZaUSWDiZEPgXrMdNWbjvwCf413Lj+bRM6y64aN1+iElN5bV4bcjGvjTAQyA4Yg/4hdABQrEZ4lqY2sRAEz0r4ABFVZwgTLDLxQ1w3fAXElrYEy5SXwMvPD7HrX4nY/aulrrDMDJny5YUbMcP1EQEfJ4IckY2yR+6+SvwEzNxvgF5I3vuEu674YfmGvAb6qkylpF/CBuUhIW0qL8kKEev9ot0I2ayOCIXoYWoc8CmtEYaGx8x99kyLnnYlzQDr/ai5+BiAb6Qd48e7ks42chyspBH3vuUL4pPplpYMXgEGQR1gYxaOJ558izo4bLskkTLUqfefk5EKnFD9JxtpAG1UB/tZy/XB5lawI/J4Ny85HHV9QoKKLbIP9/DX6a/1boR8lj+cIR9G9W1sdE/Xyi+F7vLFF9pul7G7fS8q/F97GD29mLbi8ZhyeuJYZkMygIt0riNksmlIRG8EF2o4pBRMkZo1NeI7VYuN1rNht7oIVkVFB4GuM7gSdC7hDmgIyC271m/zfiu3ZCXjWjzekniUv0Y5qkfhBv/4NKW8bPKCCDK5wlkuBbcNC/JdYIX4OVMJERgc5Ll3UHaYiD0Xb8wB+sOK0aYekAmnYe+qsZymv4GqWPSJ4FUTU5GQp5grAJBylg8KvRnXfcRcM7PPqwyMOPwm1yaKA+CuTXsFS7CGhSP4ZimjF3Y/kbh5CSZRZTaRLfkFX/oZAdrdNW21mCWDprqLCfndAAJYjIGuT1owS0/Y45VrrtvbeUJT/s2Ag/yVDmDCkHfEscX1YV7aWsqjL3C7iMc8nVjfakHkL4sIJ1Q9ubXFkAOA4syB3Si1iZXzH5iKkgLtVPJrRSGCeen1N8zSr1EV/uIvpJ8pxqxtyN9ePkbqu+C/C9FilNRqjimNefnzY+0qdZKfnZ18EU1B/PrtmfH3xmhRlqLD9CmA2N4KNYH09mM8ZvT4ZkA5RYER0tEGW0SUEEtKYsh9B498COBcmIUA0dn3YuXpmVzl1u8+vHGz9m2HLfCvyoPkei7QJkYZ9d/ExGd2XFnWgi6keVGvLYhH48/0EN9bX1smDKQkzhi3Qd0hU/PIRyCiqux48kznp7tiz8eKF0HthZeo/uJWXtrJMi+9I5y2T5guXSsWcH6dCV0/iZYXe86KPFUreiVroP7x4jqOs5s2fjx7sWoUxLsE+kj3TET7SbyRDSwYrn1GIDTbDisXZ9EYiCiCC/fzW7zuqrl0ktfva9rHNXKeuWyVS/bKnUILy8Z290gp1UlPrFC/Xn5tuvM1TqsZdhyTtvAbpUf86+nMsMMMWGHJjKQQxnqSiEGxMolb9m1kypnjxJ6pYu0X0dHUaMUmKXVT/5oR8uHy2dOF5q586Vsh49pHLYcJUz1U+UAzMlS998U2oWzJPKkaOkrENH1UVeEu8OGssf04YkKT4F46/xMl/x/Qn6Z5yb+upqqZk3V0owq1XRs49U9OqDkUWGlMcXzdPS996R2oXzpbxrd+mI/UIVvfsaHIuxplaWfzhZSiurpGb+XMwE1Uv1B5NRP/HjnqAqbddO2mF/jWmX+eG+qiS3cNJnIS4wbHdqSu4hFd34cyfj4fZmKi9/RuT6NyQ8zUFuGPc4PfzuZPSq4rtwEXTl8SmOyusi09sIn2FGxui2yK/01EeCz/fX2/YU1mjt6eF5/WcUrv9VxU8FS0QErEsQQpPI1sufMAEx7/v84ZuuXW63V0U/hhgHKAqZ01JWzJ6caTH4YiCB4IkVF16vYZoGQD26OfyIF4jJG+kdQAG1IzOXEWnHA9pcskjUK7BC5/CN73ONHzJrKjL9eP5tQ5ZrCB0CojUu6pNx1I/ZaoXHP074l0x/eaZscsxGsu0pW5qKwDdv/Dy585h/SvWcalk2b5l06NZB+m/eR/b/3d7SnoMR0Mx4Y4Y8cMZjsuGBo2Wnc7ZFj8EfHNfil+p5y+XmvW6XdXYZKF/6/X4xSf5S9LXXXysP/utB6VDZUX564YWy1VZbxXg6ovweqmXp5RtsDWOVgcMrhGUQgSEspzORJW+9JeNOP0X64+u+/zHHOboseuEF/KrtyTLs4p9Jz/2/rOELn3lWxp19pgz69mky409/luXTPsZXfIVU9Bsgo359hVRtwE2npmB7Bjik2VBPqbJNyKp4yOT1c+6D/5QPLvml1MyeJuzUK3r0lm677CzDLrgYP0ffHkCQHziTL7pA5j/0oNRgkFK3ZDE66kop79JVBp9+lvT++sFGp1JgIIMOfOy3jpIVkyZJDTbtVnTvLf0OPxgzDhWA85kk6ouGiqL0efk9H6Z/9ylDfKi+6TMICw8Ftvi1l2XC2WdLQ/VSTbcOyy1bPP28lGAgQZMizn/0QZn44x9J3cIFGKAsljLkraxHdxnx4/Ok2z5WX6jz1/fbW8o7dcGgaz7GRw0op1OBDd3W1EnVZpvK+n+8NYdLuXzQqk0UEmV1iHK74EXk9ygboQeJya/SZ7brx0uU+CQyK+cxzqCfNYJP4T5j+JZpatxqfKYf+mlco3Cp03TmdKZJkIU+xqndVghGF+BHPuCHUmgTvuO67fgRTB2M/Tzjmxab1w/zCIoC/TM0NY6RhUWNRZUVL19yFMePraY3TlHnWmmYgFUfddHjlSlUJA2KgxP1hXoR3IEl4tOvJq8Y60QYgXBGtQGfmW4bfkgDuWuN/J9JfNVh6+UPClUue6iCrXyhBO5Feeisx+SdO8dJp8FVsvWJm+ssCmnnT5ovt331Lpn1xizpsV432eWH20ufjXvK2L+/L38/8t7w0osM3XWIzHxrjkx4ZLIsX7gipGWN0ISHJ8rMd+fI4O0Hh3BaJv+cmbNlEk7ZTJk8SarRQZvJ6o9VapM3RMLK/OrS1gwf1chHNTZPrkBniAl+zV8dZoWW8Wt+xfIEukHqMFOybPx47cwzXHzJL1kiS8aNk1p07G7qly7EfocpMvnCC2T5nOky+OSTMShZXxa//aZMPPNMqZ0zB6RBZqtUxgp3CX/fvZEx+Zdh4+b4750li996VbrtuqsMPBGbOBfMkmm33CjTrvkdyoW8Rjv/34/pnosee+4pw/7vXOl78KE6QzHurNNl9t1/i3QN2IMz8dz/kwXPPSclnStl8GmnSXmvLjL5kl9gAMDZMdddqD/EL5A55oWoTl6YB/DEnEH/ESIwVGCGp/vuu0qPPbAPB/+Wvvs2xkbO4Tb0jVmWt488TJZ/9CE23O4gw3/0Y+TtYFk2YYJUT/soplrWubP0/8YhiPu6tF8H9ai+Vnrutaf0+9oB0vegg6THzjtFWjqWo8xZn1i3aZh2dfUKq2NJplSSIvJHtaiDSshkTt0O1bgN0mSN678Wnzph/SnQj9Zby78/G+vHKpZpNak/xKNRK8EP77jGpUWhASQPfMEfAFT/jFEWfTSFHxnT4o2B/534pvfm9UPlgSKoTRXSnP5jHDWW4iOiiP41KOJHZk0mzKAQxFLn1zdJ6NP6EIRSiw+NdPpQZJHQiC2twKjJZOUdIRQfYP52ky5GrsWnKvBLjqtRP1aqXiosOcM3vb9y3evy3K9fkiG7DJLD7/06SyPWg9dufUvmT1kgW5ywsezzyz01bquTNpd7jvuXvH7z2zLx8SkyfLd1UJSlss1pm8nzV74qCz9aJH268evfUnz5+tekc/8qGbbrOhGZdY5Vx6qwOvTjTxMIfObm0+qEooU600g/oNppx51kxvQZymY5Fjnl1FP0z1DwBAjzrwYyu3F6TnYwXvE9EjY5Stq1ly2efE7Ku/eUAaedJW9/46sy/4knZdFrr0j3PfZSnZEwwzcAe6sCmMsP79x775FqdMQjMHM08MwfKEHfI74pL225qXx8043S7/hv66kXRgz59nek6257SVknW3ZiWJdttpN3j/+WfPSbX0uvrxzIID3OO+/JJ6Vd1y6y2aNP6+zFwFPPlDf220MWPvMfqJI5pUajlJY5+FUHqpqgH6U06hw9eXWwkdFlLtNkh3XXl6E/vlAR6jBTteS116QhDtYy6kUvPCdSvVx6HPF1We+Kq2KKQ75/rtTMmBb8WCbq3kOGnH+R+msWYMA47v+39x0AehXV/ifZTTa9kR7S6C2hSpEiKDw6KrYnCOJDnu89wQb4BwSpKs9eEBELIKIgDyJVHvhEpIr00EJIgUAKCSF9s5ts9v/7nTNnZu79vt3sbjYQdSfZOzNnzvnNmTNz5853p9wZMvq0L0qvseOiTKxDUF555ZVIZ2n5Zu6FF55PtHB/uSbq68VQcixtqG4fRXAphyu2T5X9R8UP5TL7BDuEZ4DbrLxzr3z/tmqfDD/eSRX4ocm6+VG/bJ90+TMsypOuibgEJenF9C78jWMfDAb8Ea+9DSvBKj/UV+iDov1DXOsGL+HNBxFCoanFjjmuuNeaDKmhluk5fx5i7pFuLcD1ifTY8bvmHcKH0MbAx81h+m8a+FpEvQSrqmeVGO0cLcvKb0n/YsXruwX8kl63Zp08+ctn5NbP3C1bHjpBjr/VHnK0LfEbljXI7HvnyNqGJtn3jL1lxbwVsnzuClmxYIWMwBRP3YAeMvWG1OlPPmESXrc3y7M3vhhbCGVm3/u6jN9vrPQZhnUQRA74/DU/cYst9eGx2+67y8CBWPeiTgudQmzoISV6aD/KpZeK1Ep+CKZ2DiH8hwUMg2kOjB/cfPsS7yylIy+cqcFf9hycuND408+StUuWyfK/PgIabK+YFFCl1PeQwpQuC++8HdMZfWUUBh/uegwbKSOP/6SsfPpZWf3ydCMDe8jRH9TBSRPW66x5Y740zn1dek8YjwFILdaEQGNsvaWrf/EFWTVtGqajTtXBiauy+X9+Dju3GhC1knLtxqrpL8kqPLRXvWh/9VmYtJXPP4e1Nxzwle2PUmF9UipbsJ56uCAhUKS5EbtmMJjhD5fuTZGquvKyZskSsNdId7RFrv9x1613L+kxYWIwpcuFVOzIIkXXwiQl1P4mkIgWKsnDnqzfxJWnI8xkV0SZLKb9qEoFSXgWgn0CiWI+eE6kiMbUTQA/FK4j+rPfhlwskRbSYm6fYppapO32yfAVpx34nq8/Y1SU2ccAwmRCnF4XPoxAt7Hs4xVSxoflo/1VAWO0a2IOb1DA4UBkDjeuNrYCCgUTY/abgVLBpXRrkaFjy8gt4zuG+a3jAzAoqNCt4RdhY6wqPm8OdZsGvqrjKkXNLdAh/bMq5C+NuX+bJ8/fME36DO0t2x61tfTsi62g+Ge/QjAN0tgkyzEYqcVi2JtOvF3WNfDBjf/wVq9qwMBlncx5cG7UbNi2Q2TMPqPkqV9NlfdeaK/cn7z6aR3IjN1njPTojd0fGX5NTY2chjcc/Cs6FtqU1eK7DTL9mVzNPskuOXNAdxwtBHIgRtamQ5ZgjoxRkA/ZvjvsCBazDxP67LIrrk3SuHC+8bmYvUaMHSE1UVdSidtkB+6zlw0knAd+/12BiwHA6ldn4VA1DPpQUK47WfCbazEY+quswVuitQ0rtR6aGzB11Yxt1WH7cMPcOap+/z32NMSgU28cXKfTOyG+DlNeL2BqpWk51nMER3vQ8dZqxs+X5voGGXvaaTLmC2daQq4/wvZAsiS/JvsEZuYX/vgGxbLn4IDhbjJo3wNQViyW/sMdyBCHv227LWyyjwzYcx/jDfo6vvoxYyqRUszsRnB8jYUBCTlVK204Qf9MPiKZEKIIZOkV+MAxVuphjDm+ZRZRU8CENhg/dIEJ10MbDV9LF2yShy1jtU9o+2aHoFCb7Z9j5uGW8ANP8MilwXL9WtV4aov6a2UG/TXH3MARAymbBL5qGMqShTtN/wwzBNtjH60Hr5doOycYYDGWZ2LhNEABZywXGhMfUPmNqeyRATHnYYLnon7oFhSPN29I1Li3i5bwgeUFaRc+dUBOrrLLOpb7QRWq3D7932F8VZg64C+WJdiQaU5Xv5r9yRRqIsj7Q3npq8tl1F7D5Y2pbwqnYSYdt73uwDEJPBQb18ky8AzZarCMfddonCXRhHcL3aQ7BihS2022OUww+OBUjqlR26tWtjhgnDzwzUdl9n2zZcJ7Jsi0O2bpwGfrwyYqX2oVXhglh0vb9A9AuWAMt4hfsk/ECA87TYZK1IoY8RmojLA32lV37OpJ+LZzhNxrFi4K9eCPRVOHmEyAxYxQKvKaufOkBusuyq4bFoIyn8YFYeADhpf+8xRZfM//So8Rw2XI/u/DDpchWIaBnTozZ0A34OuUC9Z0YFcUZWv69S/CYlEv13F0w6Jduu7da2Wzg98X37xYOwr6c2EvBhN8a9QbO4Cic/1ZMPyFfjomM5Ds48ygkV/fnphFTNbSe+I02h2v+bXM+sbXZO5Vv5BuPWqlD96q9d9zT9nya/8ttcOGJ3yKQ0xReJ8zQhdg823mNsgmOxKpaJBVCcgqLYgbSMBx1sCvaQzDGT4C6Gzagl9hn4CpXifge/FVOV42Oj6M05J9NAkKwDf7uDqkuZAl2y8DFYiqayB04lqMUBaj41oVP7S2gJ8/A6rXr+XZEr5qrKpay7IWFhSBt2nhQyFvYEHFztW/Gj7roVofrUYr2KdDY4i8shG2AUooHLKw9h0KTTXYKrRzYSL/3LlhGHe6+qnBmByIGb6Kd+HDZm7Xd8A+WgmoXYwyhk8aLh/73bHyDNaZ3P3l++T/zrtPjvzhocrBS/ce2EqLtyu9NquT915yAKYIODIJFapc6SGh1Y8pmwkHj8MblGfloZ88Lv3HDpQVr62UfuP7ydDth6oEL8obY3kgaz9KrrSP5x5uk6I6AaoqvhJzfBLwFx7YLtOEhzJB18X1EgbajF/5zdgGTOe8ory4kQZiq7ESE75J4boOgmF8Qprrz3D3zQbLWkzZGJUUc814W0Jaj8Fms+UP3S9L7r9f+m65jex0C6aFcAoqd0k1YYHpgutukOYa1EtQqoZTUJBds4oYGtS0ZiwcXouTVXlMvjoMWMafd5GFC9dMQz7I8ZarwiGvdTVIiwtuixzRPjkZ9uzOHp7OGYIqgw87Uga8573SOOdVWXjzjTL3Fz+XhXfcqrt1drphislkciperQ9yYM9G8RFhPNBIssFF4fFjebic5hUiGrbkCOJ8XfgFuyX7qJXDs8ONZaxV7W/sSVxt3pr9q+NTwvEttxBvJ374OVehfxe+VgxuJRg0f4YZWW+xov3TYCa/B7Vuqt6/AUgZQrfpfYYlEd4cD7fSJqKXQFcvhRO3NQSLq0BsbDm+cQV8oCf8kGkXfjAEzbdx7SNrce7IDsOk9+Besvspu8i4/UfLEz95VmbcPcN0QF3wnJOBY/vLIuzAoavBgKUGB3TR5+CF4W7wk2uWsXuOwVqTPrLwb4vk6aumyoqFK2Uf7ApSV6rfJryRufXWW+SSSy6RSy+9VGbgbYA3HGtLaDGhOTmAR9U6ZHICb5oSvmHkV6KYQLe6nnp2RsOiNwxar5jW4poLvfkisEvI6ldeBZfhkb1+Ft5e4IFfN2JkRk1yXF/SjAd5Ax685vhQTK4fBhz1M2ZheiYM/AL0auBybFA3bqwyr8Ruo3UYDA398Idw7slQ3arLtScNr7+OfHGkflPC7DVylA4cGrATSV3IkEfUc97GOl+kMC9s+e3Ws4dt/dVwT9DqUpzbnJFPcqYgtwrXdO8hq55/ISURUJONJ0YRIIV/LKU75YJuWr+wN7cWcxpq3NnnyY7XXS89+g2UeqzD8TdDAdzEMTijPXhKsNNDrpoPmQr4JqVUt7+3H487TvI9ZMhd+MECbJjBWbCafUIrY/06s/qp/Rfsr5XQGfh+d7uCIV7AzxTSLMsaMj3pn3FrMLUXRCGq8X9y/NyCsX+htdo0hsili+1FnyxucGPzGMARTKJGt4dF4IEXQlpTDBeUQ5wI/oOtjM94wlfm8DBqH76D/CPim1XStSP2r2Yfdg7EWhcqh9M0e39pT6nbrKfc+ul7ZOVCLFZEeo8+tTJy15HSsLhRHv/FU0kRhJpx9sSiaYtk1SJb2Oj279m/p4w/cHNZiYPbHvruYxjkdJftP7Kdypb15+Fv9+Ck1R/96IdyBY5Rf+3VOTEPa0tADY3E8Z1B46GpkMaur4zPZOsSU8fo8rXYDVM7oD8+oPeAk6RpxQpZhAFT9xqcF5I55sUzRBbefgu2Jac1G/N++hPp1re/9N5+e/1VnolosM/EiTqlsviP9+h0SX7HkGEA1lqswof0Fv/hdsSgLf6vXfKWLLjxBuk5dDPptcVWisM3Fd3xUF725JMW5xWDu3nXXoVzRrilOppJ6rbeWupw3P7cX12NaZUwcsGDfP6vfolzVbCg1l/nWHYV9qHN6OK9bIY3IhWEqxs+EgOXGmnE4C4NvgJg4KFH7m44PZYfo2S4OwY/7hinWzN/Hhb8vmaRcOUAiAOnZg5+w1uavAZ7jR6Dc2MWSWM2oHU819t9NU5Ed65gL0S9eAk/8TDkdKc6rvsRQPNwrr8ffO+fzURt0D/75cvg+uyTEJlDMcZohf3bje8ICcvKYtl5qutpfUTgyPR3aa9X951OCccK0locp/0z43utmi08Bitl9et1X9lHO79Lu0XRxURDE4t052VVAMnaSkqIybmghj3FqpUxk0IoJJXx/UNRzkkYR1HIwsVTEr4lu46V+vMhbK5j+m8S+Kp6Z+pvWM1Y5UrrdMvWBexwzDYybcpL8sL/TJcHv/1XOeTSA/UNyW4nT5Zpt0+XP57zFxzYtlSGTRqK6YNGWTxtqUz93fNy9GWHyDZHbx3aj+Hv+Z+7yuNXPI0f37UYnGwjtXgw0jHPVBqL9+hZK71wymmvXnV4CPt0QuLy/sraj9PZHQBNo0arrG1mBj4FKLcbPGTHjJXaQUNwFsp0mXnWGdJn+x1k+cOPYBDwOB6M1LboukG3lc9OxeFup2FL8cGy+rXX5PVf/lJ6b72VDDzgPYVyeSkHYdqipl8vWYqFrS9/7rPSa8JE6TFqlIz4xAlYsFojIz56vMz/7W9kBs5CaZjzmnTHV5iX3H0Xds88L+PO+LIexEYtBu39bkyvNap+s776Fek7eSdZ8ejj+GryXXaPovD+oGEegw55nyycMkVmfP5U6bvffrJ66jMYoFyLqShMDammoWwt2gc2ZU/C/25YFTFb98SXmfvusIMs/b/79LC7Ae/aU7r37icjTzhBaodshp07jRjoTcGW53maH8vDjwTO+cH3dI1J89oGGfmR46THmDGy8PpfyyJ80G/wQQdLL9iyEQfR8UC61a++KmNP+Y+gaChf0GXAnntLd7SXWRd+VTZ75inpju/89BwzWoZ/+GPgD0wF/U1vlj20HOMC2ctX6J/4aiAkFIqv2rSG7zUftEgwxf51E8FXE2lx3D6dq3+oAm0DXi8pJyNH+6ttwyVjKqkHhmR/ww/xlJKQcvsHahkvxR0n+aaGx2PO68dPHLGdeXtKKN4nvY34mV21pmFAs7/fFUk7L4Jqp3KuZ9K7wj6t4Duyozi++iV8TysMULzeLREwEckVcrGyn2mFYGpwGZ0iES9EYjwGysAhnuE4vpIyeoBMADlmHk4cFiIGXeDZ1PBVLdOtVFpTu/RYZFTtX405w+LsXv3aemmsx69v3uXBHf79g2X2/a/JQ996FAtgt5AJON9k5OTh8uHrjsYalT/LvZc+IL379Za1q9bqgtmJOJxtM+zcUZfhD912qIzafYS89tBc2fnjO2qyq5Rys86wflW9vPXWW9KA3Shr+TE7utSzWZSPFS0YpLPO3arNEP3Rk+N7tRKkQIcyNdjSPP7LZ+HE1U/Kq3xw4i1Dv913k3Fnni0vff6Lgi8Mat5+WYcBwsSzzpY5P7tC3rjxeixQXSe9J46Xbb79fek5AtMquQv61w4dJtv9/GqZdfH5Mu/X1+Ck2Ebpv9tuMvK441EFNdJn551l6+98T1467bMy/Ywv4kFbg6/0rpHR//ZvMoZbj8Pbg15bbSNbXXKpzDr/XHnl0q9LLRa70g7b/PAyeemLn8dajaXInRaGSF0vGX/uRTqAmnPFFdL92qv1TcqE88+XOd/5ZmErbzJK6qAUpJr9lTnZf6vv/khmn3eOLMLum0W/vw0nvw6QoYcfpgMUfkaAeS195AkMxGD7HpCrrZWZp5+uVcsZrYE776oDFC7CrZ/ziiw+9zws/B2Iw+RwSi6m30adeKKMP/8iVYcXrp3xHx19sXtq6+/9QF6//DKZeeZZOgs0aN89wgCFzPjTCrdAjBKhov0QvYgfO7EIlBCCmVvAB/nvAZ+2wZ/37Fnp2qm/mo7WM0BGPdhefAh6/VK3gstHj1XxM9mW7N9efCiQ7NNO/ILyBHKlEc6Cbzs+7RrtoxUUNKUmWRkDNXol/TvyjM+KHWFjoITv9Y97qfl8MF1gjElFnmBpC8m0HUec9QeSGhpKUYh24eet8x21D3Z8rFpUj++z4O0FpmS8QbB+65esliZsH+6Fg9Zq6/yNBs5EWd4gKxeskjeeX6TbhQdvMUj6Du+DHTpYw6AP0lS/xPnO2B9jgW0fOeGuj0q/EX1Jii5vFivwbZvVDau1vfXHlEvP7INy+c1crf1EwFIgx88xCnTINGNQ0ogj1FfjvI9aDDJ6TpgotfilvwbTLDxGvjvCdIun3ChTj/tXmTzlNum/1976JqU7Hri9t9sBb2EGR/uV8T3vJpxKy2297Bsox8GRDbioQ5NOG9XjTJK1mD7qgzcT3Lmi385h5gG0GdM1XEey6tmn9TyU3tvvpDquxbHvtH/toEF4iNtUCsV4XkrDK7OlEetU+k7eGWtXNsMx8st0ANMd01vxGZApbcFEiH0ZAaGId2HeP/Dckqb6elsngl6LOnTDolqmN2HQ1MwBZzbYMQSFAi9sgLrmTiHq2jhnjtTPnoW1KL2lDrt46vBdHdo/aaNK6IU0Tl9xSo7nrPABwCm4GuafSZRly3HCrJeWMVgwEVKISG3AMrZinhnIPyR+oXzegmCrVp4xmUjBqFXt0wJzF34w3d+nfS5A/3hh9gbFSmGdlg1OWLw4os3vvlDgrLsCq4/GAkJofOVesIgf+3W7bQuGZO6ePxK68GmQgsE2yD54oHFwYaBmfsfvje/sMOy7PTQf2L+uf53+cctxpTPlrH5Fpt32kqxe0oCzVbaSPpvxcLai44DZfxH37d9P+uGBmdoK0iraD+VTa/SHuyqaC4ZscnxtOsF2rp/jd8O6Dk718C93PbGGw1xWLuqMvGpxounA/d/j5jK/BXxXjdt7a6S07VczACLepHBapD9OhY1O87L27/rzwV+HKRH+heyUvQcGHu68fIxzm3GfHSfpn6f3wAJbdcTnQx3/DB8EDDBMHrRgf/+l5PKO7/Tu+HJz995sR8FRMTgi1XAAgn+qK/CI787xlRe7iWhT/vXBQKroTMdIUzBA0Yc9ajHQM1JIUMZM/yjIQI7l/DlNWah88Qcv4yEXK0EXvtpfjYHeQdsN7ImGZFVcso8ZrcL+dg+3bn/2PdYui/isS9aKQmf4pJkDrirTUXxD6cJvyf5vj310kSx6I+TGqqBPh7AG7bZ0KjsyTQh+aB7Gn4uTwsYRBNkZVcfX5uds2lFGIVA7hh/y0ry78GF4fdgk+xftQ7qainxevxRC2O2vfql+yeIu1a/I/Kfny1PXPCt3feFefESwp2zz/q3wxsCamfGH3Ar4SIn4lp4GIK4/pZkW5NXjJelPjpjeEr62RUhZT2oSgdYSPpm4E1lPVtaeWcVUZYaoetS/A/ihRESBC7H16W/MJhH1z+SjfSJikGgJnwUES6v6s6RBPha4ZH81Btgq9G8LPlV0fA8X8a2NGr7zWpYt4APO2ifxyOn4Hv4nwqcJyvW7wfZJvYSZ1+wb7y9G3eQV9qdCrduf6LF+tcoczKgJ27BSZkhX1mr4SFBxe8YYEq4MFO4lxonrThlCBOEM39liH0pWMLSsf4BxQY1uTHxmtBHx1W6dgR/sEjx7coTOmuY0o6MwzAuOXggG32LKSwaw2jAgY1QyMWgUeC3iW+PL8X09RFvxmUMRn2jMW3Ou0L86PnnhXBEEbeRuJauOrzln+KbxxsZ3JYv2Ue09SSOuPyN+i6uM3kG0j+lv6bw6ohmBqeoQiOGyfUKK45P/jtPukd+dNAWv20V2//TOWMeypeFElPXhezpztZwdf336W0aUjy3SIVJSbIttx1fhNWulaXUTpixsW2u0SQyAi1lHfEoV9VeGVuxPCQNxSUTbjB8Yic/Ookr9Knxo5BGWAfxpvKS/W9HsHyQcXyUoUKGx0gK3AXcivuUY9A1lqaY/lbB7APppnbhGwT6uP8iGaenrw4+f/2g3vprFNdbcPWfT3xRpG76VTuWj/m3AJ0ton4ZgwpX2sVTXz22i4rzA0VreY0T9mVAF3wpNCTran77HPRfSUrhd+CrpeBl+ULxSf6O0Wf824Hse5rcH3/XWTMwCSsIlgNILweB3BD+T2Rj4sd9DPhuE73YwP03x0B4sg5bDClNkLcZi/wfW9AAJ4orlGNQW4Sr4IaUA7O27rfg2Pt5QfFMh6kNdqbP+D1TSECctXLQeNKriFqquvzIk/g3ANyRoENQKairZSWrrmOCK56qbrpE/039D8Cl72HcO1m3H/Ub2leE7ZSeAmuEcvt36R10r7O8pqSZY0hiLAbtvNEqTkCNGYivKjRTqy/D7Y0pnF3zYrz92q7QNn2zMgJmtHz9knOzjIdXRIl5Sxqz+c/xQZuU3IeN3qQyI8gTxpBDPon9f+CgMy5Prb2ZPVD6M0j2jpTf+RKRFolMOB0QkIQUWpKUHO+t3ffgRWgOV+FkbIUer+GQI/FF/0pKrhp9SEYr4Ri3qT5oiGGMMG29MLdjH+QPPJo6vZWiz/hzq5vUbLYCAg4RyZ16sGpgm3J2Ju2Cftw+//AzL1K0Itkd/bS9aJsBoUyi1hwp0sLnpqtkn8NsAxRnh8wdSgjZCkRYkA1MmqnIaTwCurYGW8HW1O6S68IOZNqZ9WG2dgY9f5/5GiZCxtbDi4ca8K9vNEl6XMqnQJMjYQvuxX/85t4W1MUMsbyu+W6IqPvOA8zT3O4rfc+Ro2eyoYww0uzqu+x3Fz0ucwbesfxTYAPtA1PV2P+rfHnwI+8A81511HHGRoJBoE7pmoRp+mV/fBJWIeQalJIXswk8WKtlH66LCPsbuD4u8vmJbKBATfLl+24QPptgfFfcTAABAAElEQVRWsvrN7+uYg1ZojFlbWo/+hQanomaEDcPPBicVtvh7x4eRUKYNtU+0e4V9DLw1fBdR3+s3VHuY4gkx2NoeBGSlI0H/a/5GC9fAovwIg02d+1ZqfckaUuAFLOu2GDdCkkmsnmEXfrJtZp1kQtZDe+3PjoGuZP9AtTRnoY8/r6M0OAHR/hs/GZwpx8/Jxlm4lus3672Uj9mrC/iaRRc+TGKW2ej2ibZGljB+Vfsr0TWy6tIrlPP6DeqCkP+WhEyOb1mQiBCFA/AG4BuWA+f6//PhqxlL9t9g+7CivboYroLPZO8btEqr1C91Uz7yunNCVfzABKwcX/NxfMcBeBd+MIYaIhj0bbGPGb81+3sfQZ7Ufky5tHoROqeKtteHxqLU0DEZRa+KhhDQOTqiM04L25CMnVGgwkvpkZqkmJgYYoPuwg9G6Uz7oJdIpk74XqVagx5h62mxfpmU5CNmhh9pCSY0kOC1hg+Wtw0feUVdN4b+bcWPSrTTPsR32db0d54AryOIluoXPGlA2gF84nr9IlzIOnQaOX5kUP1NKZPBFf+VkoNk+ITLk2KnBKzonEFpRjcSrvivFOehEAlB/y78FuwTDOfPgGTrYHfYOoRSBQX709RmbrtWtT8BkVCB7xkpfqg0eBrqwnfrwHZVnsFvo31MkY7XbxqgoBHwXswBLRybl7XQyOO8qQFmnMYLFl80ykbWKj6F+fc24+vcYijKhuivN1AV/VvGt4K21T5tw8+MF4zdLnzaIYOwaLJKHCwwoY34Lh07mE7Cd1z3O4yfus8sxFoz537ED3T3Eiebb1a42NgdwZq3ymEk4VT3DR/yTggZJM714FPUZTsVPyqy0fFj2Sv0h2W1bC3bh8nV7Z/0T/iBpjIMtxU/yXn7jxRWfbR/pAYSElrQ34VM/yQXsZz0d4DvqqrvtnBiFf1TmZ25sn5d3Dk8XvSRGvCVj2E4hk3OrsrkQeVIlxbIgQGpGxE/3uPIJteDYYtnVAZD+ZL2zpdTUriAn8l2Gr53jgCM3V5ByY7rnwYoLE/ESYOOVEyGUDrlyUpJavzplnEHlgjJpBjpbPxyZm3Hp0pJ/6xcBchCRAsSi8JywVkcfBpIOC3jm0SUSyCKZnQSzcW4Bor4zlPwQ6P5R8X3srol2mof5+cTj2G7oSI1wEa0eJslClkSf5GepQR8Y038mkEcSSR+w3G0xO+UoFjK2fE1Afw5Yxc+DJsPV8r2cWtWsz9tX2l/6yOyKet24luOrKQivmvifVDMGYEYZqhQvy6V85Dm+CndQxX4SEj4QdSZs7wKPP9s+HnhM5vkdZGzFO1fTKlq/8CSHupeAckvopAOiupSTGkzfl4OQ0uZaah1/AJzUKEAGSNtfwYT0/Uv4COiA5RY1Bgos3nccueIjGMS3q7042tayjuGKwrfSSngeGW/o/ghs5hRGdfj68PPlA2QbAxxBPqO41s5VB/o4vb30unPTNexQ/q3Ad8zaxXflXDmou/2rKq/s7YR39lcjH5r+JEfAQ3j4vwIBBcDxuPkmGoo1fS3FDAioGFcNio+stp08aFbMiUiodMize2T64+wuSSkNnRyTDWq9kGJtZPwObCpxNc+rlP0bw0/tJkNsk8amOX28T46t6eHcxOWTB0skVNbwQeQYgbAqvialnJ0npRDJYVpBf1L+EkWoXbgq31MoDp+NVXajA87gZd9BF1V/R3ffTJu4vhUMRQpVDbireiv/IWLM2f2QZndPspqJtOg7uJxEdx/yIsmtY4khmjp7FeZ8uuwTwVC9sZDbCb5KZVMbBk/pHXhqw0r7d+6fbSW3LhsNaijzrR/Z+CzNVtTiYrG9lAN3wzRevvxFsWyduG7NWgzhrUFuBnRSa7DUfpmqRqcvErnNUH789tH3/v+92XX3XaV9x70Xnz6B79ZwN7a/esI67c/OGK/kcJRLmji+pDu+hsPtfXeiGFzzt/N+6BSAu2Qyzm/saVcPK7t0CJ6df5q+OvwaYT8117sWFFOC28YPhXYWPqvwGcBfv/730s/nGr8gfe/P5bYy/vXRx+VO26/TXrg8wNsMuPGjZPjj/+4fXoi66PX4RMDLGt3/byFSwMOQdqmCTbqrun2gj7jiO3KrMRaCvUb8H/84x/LInyluju+fo2Pfck+++wrBx9ycNA12BaAvoMvFsI5mBZbUSV+zl9Rv2z4lFV8DebsGrZ7zFtpF37ZQGYf2kWbQ0X95vzR/rGBZPYPjOkcFG8oWr1MTR2DbgskBfLsbwwmogYoxoMMguWbPqbFlC78YLjguT3cch6H5dj50bqbtP2tQWrNawMJ+qPFeqP18oZkFwhkaz9KrNp+nB2JbcBvamiSZa+vkNqe3WTA5vyCb+fil5+Nmyr+nXf8QS795n/rA+Pmm26SzYYOdfOpyvWrV8v5+IjgZz7zH3Lge96Dhw4eDBtgf7ZRlVe/m7yO7wDNnDlTtsIHAUeNGql1zT7E7KXReIndPmSNB0mlxlPGj8IasMwVXuu7mBoajnrV8PlwnTp1qqzCxyv33nsvCBtSjnLhhRfKX+7/i9R0w/eG0Aj69ukrW2yxhRxx+OGy7377St+++GTDO6Q/9WzNPm+9tVjOPfdcmTBhfGGA4uWbga9633TTzdIbXxZ/fe7rsteee8q/fvSjIvyydzDYvHnz5aRPnSR98ImDKfhadtnde++9cv4F58uRhx8pp595hvTAd6eS8z7B4RAP9et93P/+793y6pxXZS2+r7TorTdlLb4qmQYoWc3GCkzoNLz2lNH+lfi0j4pqUynXb46f43q4C5+WUCuVTacmcvugFjR9A+wfTG5DXEb4IAlE85MGHuKIR+uV7CoTBKJHTkcpBv9+8GNhCkVpr/6KkpnCUN2SWR4xmOxf5nWp3P7kWYvTTYvOOYtUi7UfP69KxzC/omBKjlRVI+gCL2mV2o8So4ChJs6KhHbj179ZL0/84kl57sYXHBy+a9JxfIIpCi8VMG5jS6hIpjBdBLCwa+WAebLyx0v78W+6+SZ5ado0mf7SdLnrf/9Xkcr4vXr3wq9mPkjaj8+y5PqzY8rx+RA75v3HyJ133ql555aptE9ASoA5OOTR4ZXwFTRe1qd/6/jr8NHGc845B28NjouI5cCc116X5599Dm8J1uIh3UdWrVwlv/vd7+T4T3xCLr7oEv0iNw0Qy5aXpaR/5ImZVNE/Z+LDnK6D+HU962TnXXaR7bfbXmEUOsM/4ogjZcrvp+hfX3wbqwbfSMoqFzLN0qtXncre95f79E2HRrLLFLyheXn6y9K3X18bnGT47EPVRf0RSCRN+tGPfihTbr5ZLrjwAiThu1c1+QDH7WqgZf3Xj2/tp6iDqeTXDNnqsF36V8HP5ZHJ+vA1vRX7sP0XeEr4Vo6MmAXjM8wxaHz8pwue3l8bF9+eAcxQ88n1M1VwTcQ0QMHgQ38VZso6v7ODIxZE07xUzhiIOopnJpoepDsFn1i4iV2hjYIP87xd+GovzwwlS8GCRRO5aP/f/Pa3Mm/e3IzXOKP+WtGZdApmMnlzKOIXK5siju8Vz3gCbUn/lFnb8NPtkvJkyHNNeBbKNIg83Xugc+uNj9Dha81lF3c2le1TZgzxHD+xgOoKRQa7hxzfHzdRJuOLNAQiOQIyNVFT0O9Ry7gCP4Im2T/93//J5ptvLr379MHr+zsiRzV8vrJ3ZDK2jJ/BFIJukETsg3wH9B8gffCFYrq24Sf9E1KSLtLyWFvtk8ukcA0ehv3w4coBA/jGrbqr5Rsm/H3pS6fLFVf8RK782ZVy+eWXSy0e5jfe+Dt5/PHHIciesprLqVkZY7CsPzBykXiDtYwfoWKjSZThI0bIj390mXwVb8zotH4z/EH4EvQ2W28jY8eOxVsUDERSR6L8lKBtdsTXtnvX9ZJ77/uz0VMW8vhjj8sQfLxy5513sbQMPy9LTg7g6o0fP14mTpyIvwk2NVliNBMYUa96CQpE+xTNRmDjKILFWKa/47PoyT4ZvgYr7W8c+R3jMjFzqhH6ePAhuRq+FyHqplKuv/mWVh3fCmr4yq3MzuvtqyX75Pgh47IiSt4QfO9jWscPqRJ6bxYAmuB/nBPUkpp2rqMaL0ScFiQVL5gBo7Cc6pzwPRi4Wc0kOTkXc1qO5M3i7wFfi4hL2/XPDKHCqSbcFgUw8Eyb9qLMmj1TPviBY2Xy5ElINs5knyhpmth7N0XPazpy5cpGrlQ/sb5CRXncWCEM/OVzl8ua+rUyZMtBsmjGW7Js1jLptVkvGbHjMKnpaWsgArR6axubZOmMJdJ3dH/phY8LLnttmSx8YZH06NsDR+WPkF4Dekb2dfgOzsIX35QV81dKz761MmiLwdJ/RN/Yfsi4bM4yWbt6nax6cyW+m9Mkq1c0ytJXlkkT8mHx+g7tLb0G42vNcK7/2vo18gbyrF+0WnojnV9r7jWgLpo72kel/GJUNVlgUDyEtePRa34zmn0sX+Px/Cn+9NNPyfJly6UJr7T33W8/qa01W1XD95bh8qaRcmrQQ/c/+IAsX7FSPvOf/yHX/fo6mTNnjix56y0ZNJhfo3b9yS2a35Kly+ReDGjmvPaa7PGuPWS/fffTNLs4qkjjmkb5/RT8Up45Q/r27ivbbLO1HHLIIcBIg0G+6uc0wHPPP4+cuslzzz0n9z/wgK4r6FHXU3bbdTfp0bNn0EJkzZo18vDDD8vw4cNlu+22k9mzZ8utWA9R271WDj30X2TLLf2bTqLTRvfdd5/6AwYOkF3wMNxrrzAlg2K5prl9HnnkYXnm6amybPky2Rr6HnXk0fgYsv0+mzdvnrz00kt4aDTLmwsXyar6ennwwQeFay3WgTZs2DDZAQ9lOruFmmU4aGPGbK40TvEQ/+c//4W8+OKLss+799FyuR5rm9YK9X3yiSdlsyFD5H2w1TgMAlgDymNVYe0RYU6vPAJbvDhtumw+ZrQcdthhMgKDi1RnFpo5a6Y8+MBDsuCN+bLjjjvK4YcdHu1JDoPtprZ844038NXs7pia6ia9UC+jRo2y/LQEvLi2RuAgO/zWjRwMcB3TjjvtJHW9esldd/5BPvKhD7taMmvWLLxRWolprr6y045mLxd+EG3x+edfkMWLF8uWW20pu++2h0ycOMGTkx/U4H1AWzNacIH25qKFMu2ll2X8uLE6AHf9FyxYIC9NfwlviXaQoUOLX/l+De360Uf+KjOg51ZbbQV7Haq2yIymZbE68buMudOSQbGQPymRhpDF4Qc2UpyWAsa4fnxvuREsQrx9+KlMLGnuOkf/hJ9Kabnkce1R9BcfSk6TJgMk86tAlEKAYZrM/iNMGmSr1giSVNaNbkrk15AcNCYWU7vw3UZV7QNjc73AsqXL5ZdX/VyOOOxI+Rd05OZiRWjU7B/MS4oCGicjWjORhgDDbbC/50J8r/uZf5wtb81aogOUuVMX4gHTTZqANq3ndNn7S++S3gMxOMgE6hfVy8OXPSq7fWoXDD4WyYKn0ZGGrx8vgPyun5wsNXW10rCsQf52xRPSsHR1/GXVjAWd2x+5pWy+Lzr7oP8Lt07DIGV5VGhtwzp59IrHkCe0rekm24J/3LvHauGp/9JXl8sjl/1NuiGNjuv++NZllxN3koET+CBvwT6hwCZFm1W2f0vz4noMqgVdNUM1djf5f18+W16Y9rwsX75cXkRHzl+7dNXweZ+mtJbxp9w8RQYPGiAHHnigPPbo4/LiSy/IC3yA7rOPyhtGd627+VhbsP/++0v9qlWa1oSH84c//GH5zne+E6rL8pyO1/f/gkWLXCTJdQPdof8aPEy223Z7ufvuu1S2sbFR/vVf/1XXZxC8O2z7m+uuE77xa8bCRw5CbrvtNvUpwObABZwf//jH5aSTTpKJEybIeV89Dw+PPor/2+t/K//zuxtlxEi8AcAiyku/8Q0d3GhmsEVzc5Pss/c+eJvxM+mHqQnT1GzHB+LJJ39annrqKTU8F29y0fCVP/2pXPOra2XoZkPknnvukXPO/or07IUpDdYNFDrhhBM0vGbtWjniiMPkpz+9UrOzquPDu+h23HESBjPrZP78ebF+qcfCNxbIccd/AgOg6VLDdg3Bs846S678+c/k/ce8P+hqaKzXq666SqeZemMQ4e7008+Q22+/PayLYbm6yU3/8z9y5v/7f8gLi3YR5wN93PixmB6ZggfzUBM1ZaH7FfLra38Nm3F6phkDym3krrvuglRgA5/WpyIZ1UrIsOmW3bKyG6aJ+GaM04ZsJzbQ64YByPNSv7pexmw+Rt+iEH3ZsmXyCUx/TX3mWdxczboWivbvicHpRZdcIh/5yIe1PBHflaIw9aKvDhHew/Zf/vKX++Xzn/+8nH322fJf//Vf4DBOluuM00+XK6+8Uj547LGg4/6F6B1Yi/X/zjoT7bteaeQ/++yealcOVjSzDJ/pKW8kI+ZDlmr3L62k/HoJsUhkAO6fEN9tpqYo2AOGCvF4NxXsYybTAQruWTi9wAs+4qlKmAw0BUC6s3iVBeCYY1GbABmFLGcFcfU3Fn7UaCPpvyngN+uvzNvwa3MmftF+/LjjZSB+VWaaVdpfq8LrI9yInVS/RGtY3ijzpy6SzfcYJUO3HSKvPTJX3nz5TXlxykuy8yd2ku5hAMKGwBZQg7cFrzwwR1YuXCnDJw2XQeMGyMoFK6QRXw9Whx7mpTumy6qFq2QwBg1j9x2N9FXy6kNz5MU7X8ZAYpAMGIPFich74kETZM2qNVL/1mp59f45UtO7VrY7bCus1+HOg2YZMI6DDrpm6LlGnvntVOjTTUbsNEyG4y3P4peXyOt/mytPXfucHHDOvhi4hOYO2TCEr2z/bMtqznDHVW3/lmu6uv2N0g2dN+8vrQ3dHUF6Oc824od7mJ31ZvilP37ceKwDOUoe+PL98tyzzxYGKGr/7jUYXNyDQdEwDJQuxNuMRjzAr9BFkO9+97vlQx/6UFT75JNPxi/xbrLvvvvLsR86FmsEusvd9/xRFi18I/L06NlDvv3tb+sblDv/8AfhNBPXNxxwwP76RoKLMPtjKsWddzk9ME3yGKYIrrn6ajngPQfKfniTtGD+fHnmmWeQJ6yB4vfEDpNReKvwUSze3H7b7aQJxF9gYHIPdPjBD74vX/nKuQG2GTuUmuSMM86QRx/9q2y73Tby6ZNPwYO1rzz80IPyPAZqa7AQk25vDNj++5vf0Pr96U+ukHkL5snXvvY1vEFZh40k62C/cQGTntWb6+wJTz75OO7DGhk9eoyTsMCzSQ486CBZiYfiUUcdIYfDBrOwYPjqa66Wz/z7v8vECRPx5nNyxLzqql9iEet5Mmr0KDn2Ax+Ud2GR6gsvvCDXX389Bq5LI+7rc16TT5x4okzAdMgpp5wi48dPwPTSDfIw3g6cdOIn5bY7b7d2FJrYUUceJVtusZW8tWSx/AxveTgYyZ1HQ0+gSfnPSW11sf2L7DRpEqYMe6NcK3UB9NZbb60yz6JtrVi5Qo4++ugIz7dSdXV1st8B2I3z3vehbGNk2osvYDD5cx1I7LH77rrImPdm4YcSVOQiZN4D6uIzJkAHcohVeBw8m+sm07H49+R/O0mGjRgu/4nF4JN2mSy3Y4B85x8wmDnjdLkWg7f+/fp71ZqYFroIm9vHse0eNVEV0UvIW70AVMYrxwH4j4hvY4hgH9SnLYpuzT5Fw+gAhcYmmY6iiSU3GVKyROMP6dqQmMg/yCurhZVAWgiQ6vg5uspmiZ2C7xlp3qpUzLy9+IRwOPcrtrpF/Y0j3uRtsE+Or+ri0lZ85sZfJHy9zF9LRx51lM4TO477rrfH24ofqhViLCDsoKa0sBIKF2wzxK+6cbuNkp0+YovxRk4eIX++5AF9s7J6aYP0wZSPY2kbwANvyavLZOeP7yCj3zU6onGgw2mh1csaZcEzb0jvYX1kz1N3i+l1mBJ6+jfPyYKn3sAABR0M3PAdhqnPwcycv86VPoN6y4hd7W2EJuBidugmb81cIvWLG2TQhIEy+bidNHnkziO0Y5z951dlwZMLZNQetvOEiVpiFTaEWL8qGTlasI8PNghktsvtvxq7aerrV+miS93jCbZq+Jqzipftn+FDlg8LbtMcOGAgHpqj5eD3HawLOJ9++hkdgHArKR1R+ODnr+Crr7paJu+8s9K5xfTjxx0nf/zjH/WBw/a1ANMEKzBFwjUG3/3ud3Tqg8xHH32MDiRUEBfWqb6BQHjZ8hWKwcHJx/BWpWWH0uIB/9RTT8pnT/2sfPW8r0ZWvgXp27ePmo3THSeceAIWa9o0HZmOwQORb4WuvfbabIDSTW1wy623IO3dMuWm/wlvEEQ+8IH365RTfyzkpLbb4AHLP7o78KZixcrl8rGPfkzj6eJ1Tl9kxoyZumOHb4uexfTVdXhDNBRvvfZ817ti/V6BtSkrsYiWAzy+iXI3aNBAueD8C+VHP/qR/AyDKzrusLnh+t+hjN3l61/7uk7rkH7ooYdC3w/omz3G6S762sUyBFNFZ55xpvzbyf+mtCOOOBwDwAN0B8zjjz0me+zxLm3nTOSUIf/exPbdq6/+FehWBhWMl2L7UR5l817afWzqwUBy0g47yX0P3I8+Z5pwgML2O2PGDLSxRtXZYbmQ+BvfuBRTKmmK7l/+5RDZDlNmx6JcnArkFJm1GvVUVLtM1A3vgUSw39raZpWMS0j2u9p4lcPkcD333K9oXV122WXYqXag0g879DC8WTtZ7rjzDm0n/lbRahksEVfZccnsg/s38oHRWdX3rOEbT0gNzwCXK4+3HJ+52dssV6F1fHJZvo5s+lbimz7vLD40pbJBVXqV+gd7aRreZgdfX5C4pR3DxJ0j+EHeqsg5MlDkGgevrgnY4jOaYfwVzUmc4DoTP1PL4Zl5yttDGWNB/yilQl4ucqukE5QtYGT4qRm3D59wju8amtWQUIGvmeulpketzsv/Gh31/vvvp+dacL5ZXalcbcfPdCdQCcfAjW66odSN62TsPjY/7/pzWuWFm1+U1Us4QEmvr1mg5qZm2WybwYXBCXHr+ttDdPm85fq2Y5vDtypkN3r3UfLi7S/j7cxi2VpSB8iuhOtVOADgw7fgXH8kEHft6jUy8X3jCywj8RbnNQxuFrywMBugBDtU2L9oH+ZXaBaOnNERpKmU0flPO+3z2BWxUPjA6xcWaab24yDwo3BGYzDDZ/T++++X1Y0NcbHiGCyUnThxojyItweNWO/Roxa2NSVgo3UyCb/kt9l2W7UX9eeaEq6z4C94Pnw4QOmNX8I846IRa3a4XuSYY45hVupGjEwDuawrlzU4Z4XZME+6ltTXBGBvhsHPOed8RXmVHwJ8GLsbizUHdFxP8wamT5Zx3Q7elHBNxXPPP+ds6t9xxx06pfT5z30uDk6YQB24ZkPDmd04XcE3Jlx3Yo6+Gin5IHEdBt8Q0SZNWF/y+utz5aAD36sPvO3x4FUpXLgGiAOOzTHl8fDDj+iZM3z48BwSwnJNxNJlS3UQ+Rp2B82aPUvXd3AQllyzTJgwIUURuu/P98lolJfbml1DTgkdeeSRcgXeAM2aNVsHKOX2U9+A6VGUzR7+DhkQ4LHe3WnQZqScVPA/gOmTO/5wh66DOxo/iLib6cVpL0Kv0drOnJlv0zg4acJUGQcwCzFIakAbX46pH+4SehX1WM2ZVnF4ApZMuRgDFxnpTCAGnb56dYPc+6d7dV3T6vrVel+wfdZgMLzLLjvLzdgx9MzTTxfeKuZYERj4bp8sq3i/aMZ+CaoW7Z/pn2ElfAw0Aovj06fLJAsEw3eOjKsafgmH3Jsyvhc6DlCc4JWjxc0tVSCYUTyZsejcTproEaR6MAgV4CJQDKhAHutM/KRKGH1G8Eo9Y1IS0rK0pr+j8vZyseo4WQmdMZAcXxttZLOAo8bbl8xMwh8XKtZjkd/fHv2b/nKMA5QO4rtY2/XHzY9plZ4cXEAfv+m4mJUqNizlHPCgCEcmPhC4MLXgwOyHha3GlmHBVEuf4fzFa456sbPnotcVmBrKndmHt68bJksNBeK6q4aVjarjgJEJl0pygW5P/K2Yt8IEqXhmiNz+GVl5vbzEcf0LCaDnPBoG7dhjPwg2ZkRnqNXaTy7bEn4TtsvyYd24ulGO/eAHDBJX/hL/3ve+K7PxAPMHNPNkrpuP3VzXNEV80LiYdPq0l3SdAUEGDBwo+++3v9yA6YTzzjsPWN/H2o+95FP4Fb/1VvYGgnhuH8qwB9dSBUNFe4FY1p96U69aDABMNrOVUbDI8k2dBnnyySexbmWlvg1iEhei9qjtEbjMe+7F52XI4CGYAhmf6Mg3ljEPRw6sk8A/c1HbmEpZrqHYcostZfDQwfI41vbwoT9t+jTZauuttE2SmYtxud6Bs3U/waDhyiv5poR4GDgDfxXW+ryFBcvLsDCZb7nIzwPKjjv+eIrTjEX7GFUxadH+GOSwbLmGkyfvDDus0bcxOhCJBQ3CXt5AJ06sK+cFTwRdl4IBAZ4xHIJ1SA1oX9OwuLgBA+HFmD56DtuvP/OZz0RWx+cC4W984+so35t6xsw6rBmiDfvi7co6DFzUxXxjAOT0CHbQvLzl9uM4Oc9MDIrqsCNpLgaRX/jCF1E/wNdKtHpkWV8GjzuVDQCuv6a5fRDJ8SM5qh0DypnHiNMyPlPNOb77So1AMQBycQgUxKOCBf1jYgoovsO5H+rXuN5ZfOqAAQpaIc2GDltfC1Fr3HBaiW4h95UhNFHwxLlML5z6ySxG5pWYbcc3/n8GfHYPHbQPjKTdKOuGHQl8VltT81qZMHEL+a//+C/pWccOu2P4hQ6OEMxH/bx+i/orD/h69KhRfTQOMbruPbEYE37jSuuQIiSJ0D/t1kn43nk2rmrE+rpumO4hc+ZggFosoF2NqaCyw+9g2Ae55CKZ/izMWuw2Ym61dfZA1GTw8xRLrotZvWS1weYYISPXv5Bvhk8R059EunCz51gedj9TdkPwlyx5S2a8PANbX2v1lNirrrla647nofSq6y1/wNx7HKAgb9Y1t426vv7Y6o0HyFv4hc+3BO4u+/Fl8u59360LVblr45VXZstvb7ge226/JKedehrAAEhMLbFf4LsZ1OJmG289fg9wzQe3RKvzPshieuVOn4suuhgLHu+QwXircsqnT8aahtH61uM31/0GCyf/grJw94cNMOa/Pk968zwO2MEwcXVbV8E3HtcGsZwnFohTmE3yRZR3n332Bl43OQ9TCL/9zfV6CNo1v/qVDrAa8Mud0x0U+/KZX5aBgweinbO10TGPZumHaSt/O7Ri2Qpd88JFu+6K9jHFl2ONB0G43ZlvJ3I3cEB/PPgFbyeABR4cJaf6RR7NnDlrQOubodAys0oDTcseJVMg1C/f2OyLdvDMM0/jzdBaefLxJ6SxoQFTU4cqr5mum7yGHUmf+9xpGDQtkYMPPljeg8MAuctn6ZIlusiXb+TUxXpBAP9NVbbE4ExRRILG0IPrGdYVXwdp86OE6g//TQxoKbLdDtvJJ7A+r0Z3mnmJ7ZTliVtuSZHgNGeI0PrOFzKHF4qPACJxdAJRVzQwqAR4Kp6RVrJNB9/1dr+z9Xdc99eHH9udCeDOxc0c7E+SBqPh2ZTZEEIFhEzUizxZ5ViCVSvSTQ7EDB/csWLtRnG+DCfjYTBWfhe+msMvemtbhaFDWqevnA/c9yCsCTjKWEJaa/bnTejp0c40eQfq1/VqXL0Wna11hIqPBC5cZdv0aRutSuYDHZkVt0Cao0QgBkrfgX21I1qzqjS4QWNuWLFG+g/tEziTx+GQdm+0gTvNNOH37stdDd2kcXkTHtA9YvGb1qyTtQ1rsfU54KodHcR8179ALeFHziDvMg4X7i5lW4ntmZxioOOv44L9lYpLG/HfwFZZrkfq1be3bp/lQ4CiXNzaBw/FKTi8jYsD1UEZ5rUMu4fYhpiJd8tLsPZj1PCReOAWH4THYW0K/x5/4nEspr1S/oR1BOdhcSfXWvAVP52XVduWUvwSWkRgsOeLR2x9g3JCJ7eP24tvHW655RYcwT4Wr+ofcEAdYHGXi/V9MWd9rf/SLbdi+oFv7eBCkuJVwSeL9Un+0ExYLmva4x0ImqvXEQ9o4xHy3CnE6YJdd9tNz1Pp08+mMg8/8nAZky2eZT5lNwQDEx6CNmvmLEtyk1BZZh7iQzEFxnADBmtcpMqzS9w+XCPEOiZWDV/dlJ3CkJ7Sov2LZDwWuutAjBCOr3BJFAufj5AzzjxTli5dqm2Aa5Mm7TTJ2Kzzl3vuuhtlmi2XX3G5fAK7mdxxiu7zX/qiR1MmAV/VRx1xyk1dzNcCtVjYzl2M67D4PXeNmI6kvr5Ilmup1qJdjxg2Qj76sY9iei4MVnOhQtjw/R6wYoTM4TGk9oBu7jTuRkqsYE48yeRG68KH9arZJ6eBRZ8KvLHdZUGQip2J8rAi3CGcR0m2eEAJXo7vovSJrix5pjngRsMPmZTwSbWU1vQPsq3qH3jgJe483Ln4a7Hrgls3j8W8cBycmIF51Y5bAxaLwWB9VkRyqvCG6I/88ICvX7TKajdALcHWY7a93oPZaZeswlFzgZYrhLcrw/DrHv0QF9LSeSrPO6nHYtg+w32AAhyFxgU9HDtrncZRqTwHIOB/j0E4hwP+m7MWBw7zGvDmZC0GVP1HcDcUnGdIcMcn3aNGDNckoKxki/Im5FG1f2D61je/Kafhl+Ypp/w7dmxYOTuGjzNVMP3B6YOTTvikXIuttNdcfQ3+rpbLcEjXttj58vLLL8v8BQuojOpMG0yfPh0DFNcY3SfCz2NNwajRI7FWoHqnvvtuu2NR9k/lEPwy5i9q3UoaUTWAX/n4rgumbjjtWHaaG/Iu28f53D5ur1VYRMxzLg466L3GEtSlvbg7iQMGLwEZJu08GQOvpfLEk084JHwdtmq8jM807hJasiTtmDG8hBrjUNqpbGdnn3W2nh9zExbjUl/aY/BAm4LhdKs5lwhReGZy7C7DuqPh2EZ9H94CuVNugrkBEORDmVMjPM9m4RuLlNWT78eiVe6YGaLn3DgK/ZSvhbIrhIv2NzlOH82e+Yra1PFzHHJx4W0d3rzdj6P/+faKC015PoqhmxTPauFGaO7gobMBoMif//xn6ZlPySl70rM/Dvdje+S0F9tP2fHtXi3eIM15bU4h6TV8WoFnvbjO3MHWEwPs2XjTtxTTaepSNgVZj7j+6juQJ8IvkMCkcb0E4OCpCMJeZoew5NB+CmDGUSCBeaPie3nyTCv0d83Nd/01FuRykRyKPEl/kw8NxCIQzGVJzOM6QImAeUqBLUuIzEBCOI8SnHHndj/yOIGMkasUjsygI5xHycm4w7gfeZxAxshVCitzkIAXZcHGMP8KMIEGLyS4RM6VhTU58MBL3VjKK+NWWEcsZpxzZeEMnw+WJixCnIxzCT75yRNlT2xLjGpqyC4dxacx2qV/yJPTOS/fg44Jr+yJsRKDiLlPzJf+o/pJ3RB7a5HUQw4sSOay0iq1L9av9B3RR15/dB4OaQvrQpAyDVuM1+BtzfAdhwZpVRhhnCKLqZ8aTDVxsLFqsT0cPRfH584frpV5BTt2+IaHjodzzX5gji4EHY1t0uZcIuFrXWmUaYbs+EHI3iDGVMfw1OAHIR4Mds/d9+iuAi7sU9de/JAFt/bSpB8/7uNY/DpJdsOHAPmrnuecbLfdtnjTVid/CEfPM3tOiXAB4w2YqnH33e9+F2tYGmRXHKjGA9fo+LC44YYb5M038do8OK6h4MLHNVj4OBzbOM0BNegyFlM2jdjOyxNWecBb7uzXu1uv3I3nnBbuhe3JfGNw+2236xqOYHa59NL/xuFmc/Hw1tJEwSMOPRwHnI3E9uMf6FZjS+CZIU3YlnujDuIiMwOww7Dhw/SNwF/us4ECEakhB2zmjMKHuutP+oc+/CGsS9lCfvvb66N9Poh1RZzm+Rm21M6Dfl5S8rOueUS+Nf1uWCczTnbYfgd5Y8FCuejii8jixdMtsc8+O1VpvHA31Fyct3Ldb34dac/iG0JcDMrFwjuEBcAxMSANwBQQUSs/GklOL59JTd55EhawvqKLSNes8Sk+K7tygJ3TcTyk74orfopB3RIs8N1RB2YZl07FcSv6zVNuVjEOHbjw+nvf+15hJ5blmiS33HILvRefeOIJ3T5t6enKKb6+vfrIQw89BBvbVCxxf483bPo21qHgn4gt2TwIkWejqAtp1JnnzvCgvtxFUZQxWSWFct5YSTkwAZwd4TRcMklPZvtxtohZICDiyihniEQapBBuET9To0X8agkV+JFJA0x2Nd2PIk5QzjyShSMzmBDOoxTL48WfRnkK2YCpN2JBxJQrsDJvWFung2IGHmOWwRWELKKireF7ud4B/KKpUIYO6R+EquhfAgxRz2T99uHuiiNxxsGBBx6o0ztmS0f1mBvf9S/hg81fVTtnQdIaAJIq69dzcjnzgY9edzG28D7yw8ek16BesuINLGbEeo9R2Hrcq19Pbdw28AEvxjDMz68M5SVnvEefHjJmrzEy8+6Z8uRVU6XPyD6yduUafAxwufQf2Q8DFHsw8hnCDp94vQbVSW/sFlqxYKU8duWT0hMLd9fhAbbF/uNk5C4jwNEsgycOxvbkAdhu/JY8evkT0hfbmOvfXCVLcBruCOzkGTIRi3nVGEGjDD+e1lvFPtRZBe3pY9HYeGLJja74WFOAHQ3c+luHNw5uAWVoDz7LjsUH92Br8HbbbS/DhmLLdcAPSui5G7fiDIhbb/29fOpTn8rK1yxf//o35Jbf36IPjqeeflKPqP/gBz8YH2jLsB7lW9/8llz+k59gymK0/uqfhm2mPFGW25N3xUCZzkxmGR904EH6XZZ77r5bDscH9fg9GO7U+cEPf6CLPF0vllmtzPKWnBeBW1a5joEHqx1zzFFY2Dte3pi/QJ7Bw5tnlVCPVOBmHFw2Tk7BeSPfxRbfz372VN3OygPGdOcIGsu+++6Lg+wGRxPxS84894UHyn3hC5+TkZiu4g6hAw58j3zlnHOCVt6vQatMVQ6euLX66zg/5fv4OvTFF18s3N1yK3bkTLntVvnIRz+CQchEPMB74df8K9B7nuy19z56nguBKc91LX/601H6xusvWFi64w47YmfMND3k7ceX/Uh2CtMnp552mlxzzTX4sN9NMvWpZ2QMyjkVU0t8Q8BpFzuXxKz22N8ek4uxLXlt41ppXNuoO7JmYov0kTiXhWs4hg4brlvGfS1MKCSm8I6XG3EY3NcuvkR+ibdvDXgD9uPLLkc988Rq3mdYQ4ND8SZPmiz3/N8fdV0Jp3dSX2L5H47yfx+LqS+//Ce69on5TOXbLtyLus6NbMH5/cso74V/R91xV9IXvvAFGYJ6GoZzen74gx/quh2enN2rNxa/YnBx9NHvl8FY4/Pqqzj3iPcc/uJ4ElhfxFTSn/70Rz1sj9uaOe2zePEi/C3R02/32GMPGTUSP0ZQpkKlEorKqEuhAhcifovm+ldgqVCSVLQCfsqmwBXxrUypS0lcKqnRRHNt3Q/oWqACFyKm/8bHjzdaUjiqZWlJM0/QAUp69ICcWzkzYM5TLDRAleAdDDAY11JXZugZu1/EMmqBpo2G9C78ss14444ZM8bJVg1u8pL98/rL6zg1eFQZ/tHKlfYnpXX7uyxHHByEbHPU1vLMdc/KSrzx4HqUkbuPlG0/sHXCCbk0d8frW6SH2cZYlnjXUwLZb3XIBGnCuhC+3Vi9pB65dJM67LTZ7ZRdMG0UzsQIHYzrv/MJO8orf5mjf6v5FgWdYiPWrKiDfWrwvZ49Pr2zPPmrqXrU/cpFOB4fiUO3HCK7nGBz6QVjFPBDLrFTK9nN7nrLC9dkH5SndI+Rib/quQODCw7tTUAQbSf+/Q9iezHWauyGNyY8r6KgPyB3x8FY/MLs/Plv6K/eWiwG5oLOT510ksbvxAJULq6tX7Vavy1DfndDhmwme+69p9yCY+5fmT0LZHvI7LP33jjT44fOFrI0+3Cx8Z//9Ge55GuX6MBiHR74nMrgA9OcNVjah2Vv7hbWHDgaYLw+uej7ggsuwMLcVzAl9TIe3NihgWPzf4AH4MM4av55/IJ2XrYftpsv44u6XLdx7nnnYlsy1miQCPuf9KmT8FDDzjFEowxsfSwGZLTJt771bT0gjguEx0+Y4NpgAIj1SXyjENVM+nPw9EsctnYtFsqehVNe+cG9n/7sSpl02WR9i8OBUQ0GQdxyzaP5/awYtwPPUPnbo4/qduUXXngRU3Ez1CY77bST7DjJzukhb1+80WI9nfjJT+L04RdxQvA03d1z6udO1bVAhmel4vkqz059Drud+FbO2iinhH06bjQOhWvA4ta8fdI+e6NOf/zjyzEouQwnGz+v24hXrbbdcoaMI/MxnTN+wjgdxPG8IeqpjiYJht12222wsPkiufiSi4I9bacWT/LdC1NCnP6JLrZ1o3CnGL/hdNVV1+CcnXmYrttc7UERDnR/duXPcVrsB3S9Fe+dQ3G2CY9XOP2LX8KtHmtVPy8wBW321FNPlb/+9RFsjZ6GImK3FqbLOADXPjTP26o0qGWR3D7l+zfmlGOkVmU4edo/KX5h11Ub7QNbN58PC15gVkzVoKNbVHLBlsa0nmuS0FCKQq4LnzbwLnFD7JNQytWRUlrFhx6lR2oZqEPxp655VhZjTce+p++FBbF1eIOBNSKb1eG01poCXtKyQM6sE+hVGDnN0wODoDr8teSqiFVnDYxcN7N84QrpM7Qf5ra7g7fNCAXcjkj5vZYDFXCySBY09gKhEMnh2hxegcW687DzYmt8NI4uH0vlIC/PeFnqcfbF5liwyrcQZddWTVrmSykplHLhW4i1mFbaamsOepMz3iSR6z9nzqs4hG2lTJwwsTC9kLgTTjnEOqJLbwiMoy2yxin2rRosbN1i4pZ6EqvTqzU1bqF++eXpuktpBNaXuSvntxBn53CwOQnTK7kr8+VprYXbKtcSn9FTqoc4CJ4x82X9ftFAbFfPnfOsj5bSixJcED5h/AS8UUmH95HX76ucmwNOHi7HN2kTJ05MkCFkvElCQylKVPzZkKQavgMmroJIkE6pGkrRAvM/Of4FuNcuzAYouZU87H4we0XUH3JIKP1i9IpKfi7sYfc7gJ/3PCqeY3nY/fbje+PYWPpX4qec8psgp2b3hpLTcA/RclFhn3JnSiF+NI8fxjN+IPCXJv9hhB/6YMXmLcjzTDg1w2GqHlGM57abnfrzRuUPFS5m6zME6wPGDZRnfvWsLJqJAcoXMUAZyPUmLbuO6N8yWikF6vmIXTVto31KKHqQ2+IZS3FeA85uIEZwtA/11/UzoDNOW0T7cJ8n3tjwh5OKqYDVidoLi4UHjQ+LcFXakYNPOQizbiif/wAjR/X2o5wBwL1qNALgL4C2wOEAmd92zvXhd1j/KipUIbVgn6wopiAIJWmPqm+R/OoI69e/AORiya+G36E+NEFqqEq2Uf8c3xtqQdyFSfSw+4HRo+5HThBy/MDesucA7ncGfo7lYfera8J7mHev3mXr1T/H8rD71fX/R8CndbQ9dKZ9ormsj6uCfwEHKDrF472qmlovVIjOfYvlUasWpCOgeocyOI+lB7lwMyhNL47rfuv42vOX8fE0iNKdhR/UUI9PG3dtwkfBMhkrPzC8vBlc2/FdAfqt4SO5jfj86N7jVz4FOD5cIYYLbyJ9uDoMaDyufvDYAdg5sxyvQi1BzUBNmBfLRUdBnl+xzxj9sJ8OXDzNOMJVDREpFoOsk4mZu8yWle0zZ/SwA1lcy0ajgKxQHcTnUfhPXTsVW5H5Gtycnr+AmL1nCZ2bFwVMRftABoMVm3OnPKyN6YHN9xgtu548GbqFAYiiJyXbor/WWyij1T+VCHaIUG3Ap1qRnxE1m171LlPIgFuBb7yeiwpTEnguq9AlfCt36JxaxXfkYrlCTDNvFz7trMq5Qi3gI9l7GBvHOb+VsEX9W8R3y5gf7YNoxC9mwZYSbeiDSS1wQX+lpOoLGIYfdHVjMS2GWe624Lt9DMszIj4dPeofVXJ80DdJfCoNRzXpvI22qr9yesHywhqCpyhbsAsNY3QLVMc3+6lc4FabRWbDt/Rw3WB8qy/rFDsRXx8Ooa1owTNF8wI4GbT12YdiNkAJDwOF1zBF6QzNgIxieqBhqxGdJcvV2CBpGHoLbCB+nn+A3zj4WUbt1z/YChh8G5HbJ8LGAC3LCCsJt0ib7NM5+Jx22f3knZGvKWOdC8+2xImuppC2XdZzDaY6mnBsPdUjN79ntw5hauKdD+lM7IMTXenWYaqEx8cbvqVZUynpryhID9iaChx/a2D2CdfW7KMyhGkZn3qp6wA+17dMPh5z6zhvoWwfYmquoQyt2UeNSEPhP11v7GbSemfcQRCM91coj3uUUXG2Lf1ngnq1ohuD2ipkQuE24isbLtXtz8xDJlXwrXqiEqqH14eLlfGpWJGnA/ixbKGYmf4JH0RV0PWDz0avDmFPdkWVHnQjG8WMLTyIXe/ktw1fgcPlncCHtVEer9/226d1/d1ICZ8UGs8NzDAd/Kr2t1Rew7NORRVCRU2+Gj7fYsa21AK+V2WH8BXd9QdC1J/KImckVcNXNoqpqMkX9Vdtwp1g6cZKtODCc7bz8IGk90PIY4PwDUNbs2KyqBuGb7bywtPUWIMCyAuiMVMasvKbMCN6kLqZTZ1C1YzEAJ2mB2pMtCReq5BaTYz8DNB14ZsdwrU1+8SbnrzBfsYfpQpY1SKRM8jn9tc01IduLUaEXyw2frtW4FUhRxIDdFn9xjRL0avRqqVkTFkwcjJA11Z83sRtcBGfvDFigRh1HEC2kOIcFX7EYICurfobo8nk1whoxBhtCT8y5PwlYlvwyRPFLKDXSOtM/AyrCz+1hGq2qEZLFWWGzK9V+QNDIS08SQo0bwIlYiv4eVJRrer4xt+FT0vrk7yqKaoSWzRd5I4BsraMH1IMr3wtYFhiRroAP+Au5FtqGxCys0MqGdzpoKVE8zRv6c5PP0BYQDtPcodAVXwDd4yInYl5Whd+wTrRrG21jw+alZ91gb/4liLEtapKYX02g6YDbfpsIWw1YdpHR+OgO343nHnAwQmdrnYPuSghvzAfuLL+9vMJCSHdA9XaYqv4it5J+NSlhb+yfTRH8pbt4/o4DiE5amzJPs6f+RTtVPsAsF32z/ipStTfQUjMXcZvJUUiyqzsWhgyW8B/IOVQjh+VzLGDaIGftAp8E+rCD5Z+R+yDtwyhAWiTtyqJ7Yf1m9djSFaFc7qGq+qf8CuBrBHmODl+DCPQhZ9bA+F4jxqd9uE9qXYqpLVsf6SoYVuzv6cV8IMq4UkSYsCyfIMInzqRFnjccxb6+DO55CubF8ZlIpYLb8r40HGj6k98/e/WyWzdGfYxjIBkebTH/kErHxjE+g2v8lzz9eIDx2VTQVOojG8jHaaX9CeI6496URd0cfyCLsZhHSMSnOftx3ddN5b+Gxff68ENqHYs2z8Yt632N3bnzvQ3EyFLpwXgNuCH6kZFa5eIaMCIWMahUJG2HnxAePt0uLbjU7gN+FSLqgZ13z58s0eytcWTfTZU/xbwmYHav4iv5CASPbIwQtt4ONZv4Ip1GeI5fiB5v0GYgnPCevCVTRWB9D8EPq3ghbcyabFIzp2ztNc+iuHCiADczZfDuwp+jylPqX5tgEKpoIQB2G/rAphHPF/Pkb6Hncd93qDegCDnQQo4jLNG3xMc8x3DR8adrr8XjqUlPjw3ynrsEyU9QFmK0w9hxJRmF2cIJCbF5Er7x6QYMLmW8TNcBteH77juuzhbZ1Q1SwxBbbxlfNRLxqlINKPClBI459sqftCjoH+n4sfCJfu3iA9d263/huLDAAGikHnUowo+BGJysB/jSi0lrLf9eOaUi7IJ30n024cf9OY9TFfCN2LKsio+RfM/F1J/ffiW7vpTpEL/ABHzeFvxQ2Yt2ifVgavVPv3fZnxm58bWMuX6W0Jr+ms79YLmPrC8mtaPn+lADBeEv2nhm3JuLjecq8tUdU5Yn/4ORN/D1toDUMlzngw/2qrEmgYoZM6eBiYbkHLPQRXIcyqiJipmvvwGgBwXj5rjjBhdDhxi/9D4hVJr+dtqH0qqtUr2KUSLVg348OjI2Ir9I04MUMjriWE6S7Ras7BX73rxHdd9xdOZUQ0ZeoZPYGbk/PSr6U8e/BX0IJgKtwFfeXHZJPChhJd3o+hfxs+yUztY5lq/bv+CfUIE9RA5ldlx2oZvKOBV2QzAQAGW8L3KLQmPGOcx4WSuTH9XuTV840E+WfYsRRk/YlULtKJ/bH8B38T/vvDV1BtR/w3BT6bPFCy0jdCGNBkJwa+sX5OPoqGelZouXn3wSbS/pL/jIyUCqXDg9fvDYHhN0M4HYgTc2PimQcyOGQc1kjYeMj8Wi6JwnqohT6TvNxQ4lOyMwVfP+UtIGi1dbBdPJLpkyQ9Rp0Z2UyFFQyjxpZAlebzkh6hTE2AlhWmJmkJd+NWs1j77JAQPleWLVnau5Dt/yfdoYgyhcgKbb/aLpZwca94T4Htwvdhk6MJPZmrRcMmkLbJ4AnwPJuAQajEhcSpLNT6nwfdgBWopIaHGEB8WWWuK9AS6sfGRZUnNFE2hTLFCcP36b9r4VvZq5cxoWZCFT9EUKhglRDQ1XUosmawHg+/RlJNTrG9wIKWmi5PhO38geTT4Hk18TtnU8EsKl6Jt0l9N4OVzE3m8BFiKOnfKJ1HyUC0/mBQdbJj/cCKmHURF4xqUjoswSmrGftP0RkQ5UXXw8a7dbix7HKigXzqIT1wuzSnjE9Y0Cxm0A9/2y0JAZTJ8zcnwrFSWB8PGm/LUdDWYaWH8/JUEXXUoXcJXw4RFRoDrwoctYCIeS6312wn2oVXXZfbfcHyrd1a/toECPtoCMsj1t22Eqc2wZfDPZFOdOx7T7KbTEPhcf+MwfGIgBSxtw7ccvX114Zftvz77gJ8NBzavan+tB8Mkl3GyvpxmlJbtH/BDeze+rH5L+IZsV+NtDZ9tBFzQXw9h5L0A0dB7wmffRB7XNUd32iaAT03DM2aj6P+O4Kv1tW21ZH+o1e5nsNsn1jLrvoX67Qh+3vLKz2C2lILrgP4m76WAD/3ZhOlqe+LjZLwJSaFvdFy1FYcGy3Q9rQs+/tORj0H19WIxvYYE5yF/NXyFRZLlj9mmkKeyk04x+lXwSeP8FHnUVdG/c/Gpp+mjV+jKDoCbaTtH/87BV1tAz0r7OD4tZrbuiP4bBd9BQ+tjpVJ/VnvuqDmHMkX98TUPTSi2H5fTpqMRk/ZgW/ExXIAykMI3VPL2aQ3TdGRyYNJQZSySA1+yv+Jr8vrwc4xybiFNCwttqKu2Sx3uIMwE/GX3V4X+yVAK5tYqkDXSdnxmR6deASjpXyDn+KhUe6jy9Bkm4K+kf2fh00ra87URPxTLtbLysaA6MIC+tD+YyMf6NXwrQmQOxaFY2T4mxxTKh3SNIMZT/jqMb8htxTd7Wy2UdaRilfZvCz541E4sHMKo59w+Wl6DKVS3GaIj+MjGbUidGd4Y+MTkLez48GO+CKcE68HUdq4P0+mqPMPYOCLmRse3mlD7UB38sVjqohId1R9I7RhDaBtBxrX8JkGX67JAlwW6LNBlgS4LdFmgywKbkgX4U6sFF8ZOcQhFtkIkyLWVVs6Gv5AyyEIk5+3CV2tsLPu4qTcafqi/DuEH2ayZuLpsi5b6j4SfSpdCyQaVtJSWQs5VzT6elvuVkuk+T2kplGSNFlKqMShrtQSnuZ9yTOhOCzyRNQYCazlOstPcT5Sq+GSLrDEQWMtxkp3mfqIEIfUsFVcGImsMBNZyvBKBlGpcRsOVgcgQAwGoHA9k9VJaCqV0o+FaSCxEECmRFwAAAGFJREFUEnPVUOJNoTIjUgqJhUiZuRRPvClUYiF4IbEQKTNncfIl3hTKWDQdKYXEQiRnLoXJl3hTKGcLPIXEQiRnLoWLfMWYs5KKv0JiIeKMVfwiXzHm7IFaSCxEnLFF//8DzeDHiMG1lh8AAAAASUVORK5CYII=;" parent="1" vertex="1">
          <mxGeometry x="39.99999999999997" y="180" width="284.54" height="50" as="geometry" />
        </mxCell>
        <mxCell id="Cl85sYf7Jdiys7CeOGFP-7" style="edgeStyle=orthogonalEdgeStyle;rounded=0;orthogonalLoop=1;jettySize=auto;html=1;entryX=0.5;entryY=0;entryDx=0;entryDy=0;fontColor=#331A00;" parent="1" source="Cl85sYf7Jdiys7CeOGFP-4" target="Cl85sYf7Jdiys7CeOGFP-6" edge="1">
          <mxGeometry relative="1" as="geometry" />
        </mxCell>
        <mxCell id="Cl85sYf7Jdiys7CeOGFP-4" value="BaseAtom:() =&amp;gt; registernode" style="rounded=0;whiteSpace=wrap;html=1;fillColor=#dae8fc;strokeColor=#6c8ebf;fontColor=#000033;spacingLeft=10;spacingRight=10;" parent="1" vertex="1">
          <mxGeometry x="37.5" y="360" width="202.5" height="60" as="geometry" />
        </mxCell>
        <mxCell id="Cl85sYf7Jdiys7CeOGFP-6" value="&lt;div&gt;&lt;br&gt;&lt;/div&gt;&lt;div&gt;Registernode:&lt;span&gt;({key,get,set..}:node) =&amp;gt; recoilstate&lt;/span&gt;&lt;/div&gt;&lt;div&gt;&lt;br&gt;&lt;/div&gt;" style="rounded=0;whiteSpace=wrap;html=1;fillColor=#dae8fc;strokeColor=#6c8ebf;fontColor=#000033;spacingLeft=10;spacingRight=10;" parent="1" vertex="1">
          <mxGeometry x="37.5" y="480" width="245" height="60" as="geometry" />
        </mxCell>
        <mxCell id="w0ztPmijqFBuBFghJNl6-1" value="&lt;div&gt;baseatom:()=&amp;gt;RecoilState&lt;/div&gt;&lt;div&gt;(ReacoilValue包含RecoilState)&lt;/div&gt;" style="rounded=0;whiteSpace=wrap;html=1;fillColor=#dae8fc;strokeColor=#6c8ebf;fontColor=#000033;" vertex="1" parent="1">
          <mxGeometry x="319" y="240" width="201" height="60" as="geometry" />
        </mxCell>
        <mxCell id="w0ztPmijqFBuBFghJNl6-2" value="&lt;div&gt;RecoilValue:&lt;/div&gt;" style="rounded=0;whiteSpace=wrap;html=1;fillColor=#dae8fc;strokeColor=#6c8ebf;fontColor=#000033;" vertex="1" parent="1">
          <mxGeometry x="319" y="360" width="201" height="60" as="geometry" />
        </mxCell>
        <mxCell id="w0ztPmijqFBuBFghJNl6-3" value="&lt;div&gt;Node基于map做了定制化的封装，&lt;/div&gt;&lt;div&gt;例如数据的过滤处理，&lt;/div&gt;&lt;div&gt;这样就不需要直接去storeState里面操作&lt;/div&gt;" style="text;html=1;align=left;verticalAlign=middle;resizable=0;points=[];autosize=1;" vertex="1" parent="1">
          <mxGeometry x="319" y="440" width="230" height="50" as="geometry" />
        </mxCell>
      </root>
    </mxGraphModel>
  </diagram>
</mxfile>
